# Blender 4.3.2
# www.blender.org
mtllib flower pot.mtl
o Cylinder
v -0.000000 0.004738 -1.966925
v 0.000000 0.208867 -2.002619
v 0.031588 0.004738 -1.960642
v 0.045248 0.208867 -1.993619
v 0.058367 0.004738 -1.942748
v 0.083607 0.208867 -1.967988
v 0.076260 0.004738 -1.915969
v 0.109238 0.208867 -1.929629
v 0.082544 0.004738 -1.884381
v 0.118238 0.208867 -1.884381
v 0.076260 0.004738 -1.852793
v 0.109238 0.208867 -1.839134
v 0.058367 0.004738 -1.826014
v 0.083607 0.208867 -1.800774
v 0.031588 0.004738 -1.808121
v 0.045248 0.208867 -1.775144
v -0.000000 0.004738 -1.801837
v 0.000000 0.208867 -1.766143
v -0.031588 0.004738 -1.808121
v -0.045248 0.208867 -1.775144
v -0.058367 0.004738 -1.826014
v -0.083607 0.208867 -1.800774
v -0.076260 0.004738 -1.852793
v -0.109238 0.208867 -1.839134
v -0.082544 0.004738 -1.884381
v -0.118238 0.208867 -1.884381
v -0.076260 0.004738 -1.915969
v -0.109238 0.208867 -1.929629
v -0.058367 0.004738 -1.942748
v -0.083607 0.208867 -1.967988
v -0.031588 0.004738 -1.960642
v -0.045248 0.208867 -1.993619
v 0.000000 0.168006 -1.995474
v 0.042513 0.168006 -1.987018
v 0.078555 0.168006 -1.962936
v 0.102636 0.168006 -1.926895
v 0.111093 0.168006 -1.884381
v 0.102636 0.168006 -1.841868
v 0.078555 0.168006 -1.805827
v 0.042513 0.168006 -1.781745
v 0.000000 0.168006 -1.773288
v -0.042513 0.168006 -1.781745
v -0.078555 0.168006 -1.805827
v -0.102636 0.168006 -1.841868
v -0.111093 0.168006 -1.884381
v -0.102636 0.168006 -1.926895
v -0.078555 0.168006 -1.962936
v -0.042513 0.168006 -1.987018
v 0.049842 0.210941 -2.004710
v 0.000000 0.210941 -2.014625
v 0.000000 0.165931 -2.006754
v 0.092096 0.210941 -1.976477
v 0.120329 0.210941 -1.934223
v 0.130244 0.210941 -1.884381
v 0.120329 0.210941 -1.834539
v 0.092096 0.210941 -1.792285
v 0.049842 0.210941 -1.764052
v 0.000000 0.210941 -1.754138
v -0.049842 0.210941 -1.764052
v -0.092096 0.210941 -1.792285
v -0.120329 0.210941 -1.834539
v -0.130244 0.210941 -1.884381
v -0.120329 0.210941 -1.934223
v -0.092096 0.210941 -1.976477
v -0.049842 0.210941 -2.004710
v 0.046830 0.165931 -1.997439
v 0.086531 0.165931 -1.970912
v 0.113058 0.165931 -1.931211
v 0.122373 0.165931 -1.884381
v 0.113058 0.165931 -1.837551
v 0.086531 0.165931 -1.797850
v 0.046830 0.165931 -1.771323
v 0.000000 0.165931 -1.762008
v -0.046830 0.165931 -1.771323
v -0.086531 0.165931 -1.797850
v -0.113058 0.165931 -1.837551
v -0.122373 0.165931 -1.884381
v -0.113058 0.165931 -1.931211
v -0.086531 0.165931 -1.970912
v -0.046830 0.165931 -1.997439
v 0.028858 0.032873 -1.954051
v -0.000000 0.032873 -1.959791
v 0.053323 0.032873 -1.937704
v 0.069670 0.032873 -1.913239
v 0.075410 0.032873 -1.884381
v 0.069670 0.032873 -1.855523
v 0.053323 0.032873 -1.831058
v 0.028858 0.032873 -1.814711
v -0.000000 0.032873 -1.808971
v -0.028858 0.032873 -1.814711
v -0.053323 0.032873 -1.831058
v -0.069670 0.032873 -1.855523
v -0.075410 0.032873 -1.884381
v -0.069670 0.032873 -1.913239
v -0.053323 0.032873 -1.937704
v -0.028858 0.032873 -1.954051
v 0.099972 0.167652 -1.925791
v 0.108208 0.167652 -1.884381
v -0.000211 0.167652 -1.776888
v -0.040301 0.167652 -1.784528
v -0.099972 0.167652 -1.925791
v -0.076515 0.167652 -1.960896
v 0.041410 0.167652 -1.984353
v 0.076515 0.167652 -1.960896
v 0.076515 0.167652 -1.807866
v 0.041410 0.167652 -1.784410
v -0.099972 0.167652 -1.842972
v -0.108208 0.167652 -1.884381
v 0.099972 0.167652 -1.842972
v -0.075074 0.167652 -1.808726
v -0.041410 0.167652 -1.984353
v -0.000000 0.167652 -1.992590
v -0.098564 0.167652 -1.840982
vn -0.0964 0.9848 -0.1443
vn -0.1024 -0.9829 -0.1532
vn 0.1443 0.9848 -0.0964
vn -0.0964 0.9848 0.1443
vn -0.0360 -0.9829 -0.1808
vn 0.0360 -0.9829 -0.1808
vn 0.0964 0.9848 0.1443
vn -0.1443 0.9848 -0.0964
vn 0.1024 -0.9829 -0.1532
vn 0.0964 0.9848 -0.1443
vn 0.1532 -0.9829 -0.1024
vn -0.0338 0.9848 0.1702
vn 0.1808 -0.9829 -0.0360
vn 0.1443 0.9848 0.0964
vn -0.9540 0.2322 0.1898
vn -0.1702 0.9848 -0.0338
vn 0.1808 -0.9829 0.0360
vn -0.0000 -1.0000 -0.0000
vn -0.1923 -0.1690 -0.9667
vn -0.5476 -0.1690 -0.8195
vn -0.8195 -0.1690 -0.5476
vn -0.9667 -0.1690 -0.1923
vn -0.9667 -0.1690 0.1923
vn -0.8195 -0.1690 0.5476
vn -0.5476 -0.1690 0.8195
vn -0.1923 -0.1690 0.9667
vn 0.1923 -0.1690 0.9667
vn 0.5476 -0.1690 0.8195
vn 0.8195 -0.1690 0.5476
vn 0.9667 -0.1690 0.1923
vn 0.9667 -0.1690 -0.1923
vn 0.8195 -0.1690 -0.5476
vn 0.5476 -0.1690 -0.8195
vn 0.1923 -0.1690 -0.9667
vn 0.0338 0.9848 0.1702
vn -0.1532 -0.9829 -0.1024
vn -0.1808 -0.9829 -0.0360
vn -0.1443 0.9848 0.0964
vn 0.1702 0.9848 -0.0338
vn -0.1808 -0.9829 0.0360
vn -0.0338 0.9848 -0.1702
vn -0.1532 -0.9829 0.1024
vn 0.0360 -0.9829 0.1808
vn -0.1024 -0.9829 0.1532
vn -0.1702 0.9848 0.0338
vn 0.1702 0.9848 0.0338
vn 0.1024 -0.9829 0.1532
vn -0.0360 -0.9829 0.1808
vn 0.1532 -0.9829 0.1024
vn 0.0338 0.9848 -0.1702
vn -0.0000 1.0000 -0.0000
vn 0.1854 0.2288 -0.9557
vn 0.8088 0.2322 0.5404
vn -0.5404 0.2322 0.8088
vn -0.5404 0.2322 -0.8088
vn 0.9540 0.2322 -0.1898
vn -0.9540 0.2322 -0.1898
vn 0.5504 0.2244 -0.8042
vn 0.5404 0.2322 0.8088
vn -0.8088 0.2322 0.5404
vn -0.1800 0.2296 -0.9565
vn -0.1898 0.2322 0.9540
vn 0.9540 0.2322 0.1898
vn -0.8088 0.2322 -0.5404
vn 0.7970 0.2264 -0.5599
vn 0.1898 0.2322 0.9540
vn 0.7946 0.2507 -0.5530
vn -0.1814 0.2404 -0.9536
vn 0.5442 0.2570 -0.7987
vn 0.1856 0.2432 -0.9521
vt 0.419706 0.080294
vt 0.341844 0.028269
vt 0.562500 0.899913
vt 0.625000 0.899913
vt 0.080294 0.080294
vt 0.028269 0.158156
vt 0.341844 0.471731
vt 0.419706 0.419706
vt 0.500000 0.899913
vt 0.437500 0.899913
vt 0.080294 0.419706
vt 0.158156 0.471731
vt 0.471731 0.158156
vt 0.375000 0.899913
vt 0.158156 0.028269
vt 0.312500 0.899913
vt 0.250000 0.490000
vt 0.250000 0.899913
vt 0.028269 0.341844
vt 0.490000 0.250000
vt 0.471731 0.341844
vt 0.471731 0.341844
vt 0.187500 0.899913
vt 0.750000 0.490000
vt 0.841844 0.471731
vt 0.919706 0.419706
vt 0.971731 0.341844
vt 0.990000 0.250000
vt 0.971731 0.158156
vt 0.919706 0.080294
vt 0.841844 0.028269
vt 0.750000 0.010000
vt 0.658156 0.028269
vt 0.580294 0.080294
vt 0.528269 0.158156
vt 0.510000 0.250000
vt 0.528269 0.341844
vt 0.580294 0.419706
vt 0.658156 0.471731
vt 0.062500 0.500000
vt 0.062500 0.899913
vt 0.000000 0.899913
vt 0.000000 0.500000
vt 0.125000 0.500000
vt 0.125000 0.899913
vt 0.187500 0.500000
vt 0.250000 0.500000
vt 0.312500 0.500000
vt 0.375000 0.500000
vt 0.437500 0.500000
vt 0.500000 0.500000
vt 0.562500 0.500000
vt 0.625000 0.500000
vt 0.687500 0.500000
vt 0.687500 0.899913
vt 0.750000 0.500000
vt 0.750000 0.899913
vt 0.812500 0.500000
vt 0.812500 0.899913
vt 0.875000 0.500000
vt 0.875000 0.899913
vt 0.937500 0.500000
vt 0.937500 0.899913
vt 1.000000 0.500000
vt 1.000000 0.899913
vt 1.000000 1.000000
vt 0.937500 1.000000
vt 0.875000 1.000000
vt 0.812500 1.000000
vt 0.750000 1.000000
vt 0.687500 1.000000
vt 0.625000 1.000000
vt 0.562500 1.000000
vt 0.500000 1.000000
vt 0.437500 1.000000
vt 0.375000 1.000000
vt 0.312500 1.000000
vt 0.250000 1.000000
vt 0.187500 1.000000
vt 0.125000 1.000000
vt 0.062500 1.000000
vt 0.000000 1.000000
vt 0.010000 0.250000
vt 0.250000 0.010000
vt 0.471731 0.158156
vt 0.158156 0.471731
vt 0.250000 0.490000
vt 0.000000 0.000000
s 0
f 14/1/1 16/2/1 57/2/1 56/1/1
f 40/3/2 39/4/2 71/4/2 72/3/2
f 22/5/3 24/6/3 61/6/3 60/5/3
f 4/7/4 6/8/4 52/8/4 49/7/4
f 41/9/5 40/3/5 72/3/5 73/9/5
f 42/10/6 41/9/6 73/9/6 74/10/6
f 30/11/7 32/12/7 65/12/7 64/11/7
f 12/13/8 14/1/8 56/1/8 55/13/8
f 43/14/9 42/10/9 74/10/9 75/14/9
f 20/15/10 22/5/10 60/5/10 59/15/10
f 44/16/11 43/14/11 75/14/11 76/16/11
f 2/17/12 4/7/12 49/7/12 50/17/12
f 45/18/13 44/16/13 76/16/13 77/18/13
f 28/19/14 30/11/14 64/11/14 63/19/14
f 98/20/15 97/21/15 84/22/15 85/20/15
f 10/20/16 12/13/16 55/13/16 54/20/16
f 46/23/17 45/18/17 77/18/17 78/23/17
f 1/24/18 3/25/18 5/26/18 7/27/18 9/28/18 11/29/18 13/30/18 15/31/18 17/32/18 19/33/18 21/34/18 23/35/18 25/36/18 27/37/18 29/38/18 31/39/18
f 31/40/19 48/41/19 33/42/19 1/43/19
f 29/44/20 47/45/20 48/41/20 31/40/20
f 27/46/21 46/23/21 47/45/21 29/44/21
f 25/47/22 45/18/22 46/23/22 27/46/22
f 23/48/23 44/16/23 45/18/23 25/47/23
f 21/49/24 43/14/24 44/16/24 23/48/24
f 19/50/25 42/10/25 43/14/25 21/49/25
f 17/51/26 41/9/26 42/10/26 19/50/26
f 15/52/27 40/3/27 41/9/27 17/51/27
f 13/53/28 39/4/28 40/3/28 15/52/28
f 11/54/29 38/55/29 39/4/29 13/53/29
f 9/56/30 37/57/30 38/55/30 11/54/30
f 7/58/31 36/59/31 37/57/31 9/56/31
f 5/60/32 35/61/32 36/59/32 7/58/32
f 3/62/33 34/63/33 35/61/33 5/60/33
f 1/64/34 33/65/34 34/63/34 3/62/34
f 51/65/34 50/66/34 49/67/34 66/63/34
f 66/63/33 49/67/33 52/68/33 67/61/33
f 67/61/32 52/68/32 53/69/32 68/59/32
f 68/59/31 53/69/31 54/70/31 69/57/31
f 70/55/29 55/71/29 56/72/29 71/4/29
f 71/4/28 56/72/28 57/73/28 72/3/28
f 72/3/27 57/73/27 58/74/27 73/9/27
f 73/9/26 58/74/26 59/75/26 74/10/26
f 74/10/25 59/75/25 60/76/25 75/14/25
f 75/14/24 60/76/24 61/77/24 76/16/24
f 76/16/23 61/77/23 62/78/23 77/18/23
f 77/18/22 62/78/22 63/79/22 78/23/22
f 78/23/21 63/79/21 64/80/21 79/45/21
f 79/45/20 64/80/20 65/81/20 80/41/20
f 80/41/19 65/81/19 50/82/19 51/42/19
f 32/12/35 2/17/35 50/17/35 65/12/35
f 39/4/36 38/55/36 70/55/36 71/4/36
f 38/55/37 37/57/37 69/57/37 70/55/37
f 6/8/38 8/22/38 53/22/38 52/8/38
f 24/6/39 26/83/39 62/83/39 61/6/39
f 37/57/40 36/59/40 68/59/40 69/57/40
f 16/2/41 18/84/41 58/84/41 57/2/41
f 36/59/42 35/61/42 67/61/42 68/59/42
f 33/42/43 48/41/43 80/41/43 51/42/43
f 35/61/44 34/63/44 66/63/44 67/61/44
f 8/22/45 10/20/45 54/20/45 53/22/45
f 26/83/46 28/19/46 63/19/46 62/83/46
f 48/41/47 47/45/47 79/45/47 80/41/47
f 34/63/48 33/65/48 51/65/48 66/63/48
f 47/45/49 46/23/49 78/23/49 79/45/49
f 18/84/50 20/15/50 59/15/50 58/84/50
f 81/7/51 82/17/51 96/12/51 95/11/51 94/19/51 93/83/51 92/6/51 91/5/51 90/15/51 89/84/51 88/2/51 87/1/51 86/13/51 85/20/51 84/22/51 83/8/51
f 100/15/52 99/84/52 89/84/52 90/15/52
f 102/11/53 101/19/53 94/19/53 95/11/53
f 104/8/54 103/7/54 81/7/54 83/8/54
f 106/2/55 105/1/55 87/1/55 88/2/55
f 108/83/56 107/6/56 92/6/56 93/83/56
f 109/85/57 98/20/57 85/20/57 86/13/57
f 110/5/58 100/15/58 90/15/58 91/5/58
f 111/86/59 102/11/59 95/11/59 96/12/59
f 97/21/60 104/8/60 83/8/60 84/22/60
f 99/84/61 106/2/61 88/2/61 89/84/61
f 103/7/62 112/87/62 82/17/62 81/7/62
f 101/19/63 108/83/63 93/83/63 94/19/63
f 105/1/64 109/85/64 86/13/64 87/1/64
f 107/6/65 110/5/65 91/5/65 92/6/65
f 112/87/66 111/86/66 96/12/66 82/17/66
f 2/17/66 32/12/66 111/86/66 112/87/66
f 24/6/67 22/5/67 110/5/67 107/6/67
f 14/1/64 12/13/64 109/85/64 105/1/64
f 28/19/63 26/83/63 108/83/63 101/19/63
f 4/7/62 2/17/62 112/87/62 103/7/62
f 18/84/68 16/2/68 106/2/68 99/84/68
f 8/22/60 6/8/60 104/8/60 97/21/60
f 32/12/59 30/11/59 102/11/59 111/86/59
f 22/5/69 20/15/69 100/15/69 110/5/69
f 12/13/57 10/20/57 98/20/57 109/85/57
f 26/83/56 24/6/56 107/6/56 108/83/56
f 16/2/55 14/1/55 105/1/55 106/2/55
f 6/8/54 4/7/54 103/7/54 104/8/54
f 30/11/53 28/19/53 101/19/53 102/11/53
f 20/15/70 18/84/70 99/84/70 100/15/70
f 10/20/15 8/22/15 97/21/15 98/20/15
f 69/88/30 54/88/30 55/88/30 70/88/30
f 112/88/51 111/88/51 99/88/51 106/88/51
f 109/88/51 104/88/51 103/88/51 105/88/51
f 112/88/51 106/88/51 105/88/51 103/88/51
f 104/88/51 109/88/51 98/88/51 97/88/51
f 111/86/51 102/11/51 100/11/51 99/86/51
f 102/11/51 101/19/51 110/19/51 100/11/51
f 101/19/51 108/83/51 113/83/51 110/19/51
