# Blender 4.3.2
# www.blender.org
mtllib glass.mtl
o g\lass
v -0.041425 0.539120 -0.629873
v 0.199617 0.539120 -0.581927
v 0.403963 0.539120 -0.445387
v 0.540502 0.539120 -0.241042
v 0.588448 0.539120 -0.000000
v 0.540502 0.539120 0.241042
v 0.403963 0.539120 0.445387
v 0.199617 0.539120 0.581927
v -0.041425 0.539120 0.629873
v -0.282467 0.539120 0.581927
v -0.486812 0.539120 0.445387
v -0.623351 0.539120 0.241042
v -0.671298 0.539120 0.000000
v -0.623351 0.539120 -0.241042
v -0.486812 0.539120 -0.445387
v -0.282467 0.539120 -0.581927
v -0.282467 2.976420 0.581927
v -0.041425 2.976420 0.629873
v 0.403963 2.976420 -0.445387
v 0.199617 2.976420 -0.581927
v -0.486812 2.976420 0.445387
v 0.540502 2.976420 -0.241042
v -0.623351 2.976420 0.241042
v 0.588448 2.976420 -0.000000
v -0.671298 2.976420 0.000000
v 0.540502 2.976420 0.241042
v -0.623351 2.976420 -0.241042
v 0.403963 2.976420 0.445387
v -0.486812 2.976420 -0.445387
v 0.199617 2.976420 0.581927
v -0.282467 2.976420 -0.581927
v -0.041425 2.976420 -0.629873
v -0.041425 0.539120 -0.629873
v 0.199617 0.539120 -0.581927
v 0.403963 0.539120 -0.445387
v 0.540502 0.539120 -0.241042
v 0.588448 0.539120 -0.000000
v 0.540502 0.539120 0.241042
v 0.403963 0.539120 0.445387
v 0.199617 0.539120 0.581927
v -0.041425 0.539120 0.629873
v -0.282467 0.539120 0.581927
v -0.486812 0.539120 0.445387
v -0.623351 0.539120 0.241042
v -0.671298 0.539120 0.000000
v -0.623351 0.539120 -0.241042
v -0.486812 0.539120 -0.445387
v -0.282467 0.539120 -0.581927
v -0.282467 2.976420 0.581927
v -0.041425 2.976420 0.629873
v 0.403963 2.976420 -0.445387
v 0.199617 2.976420 -0.581927
v -0.486812 2.976420 0.445387
v 0.540502 2.976420 -0.241042
v -0.623351 2.976420 0.241042
v 0.588448 2.976420 -0.000000
v -0.671298 2.976420 0.000000
v 0.540502 2.976420 0.241042
v -0.623351 2.976420 -0.241042
v 0.403963 2.976420 0.445387
v -0.486812 2.976420 -0.445387
v 0.199617 2.976420 0.581927
v -0.282467 2.976420 -0.581927
v -0.041425 2.976420 -0.629873
vn -0.0000 -0.0000 -1.0000
vn 0.3827 -0.0000 -0.9239
vn 0.7071 -0.0000 -0.7071
vn 0.9239 -0.0000 -0.3827
vn 1.0000 -0.0000 -0.0000
vn 0.9239 -0.0000 0.3827
vn 0.7071 -0.0000 0.7071
vn 0.3827 -0.0000 0.9239
vn -0.0000 -0.0000 1.0000
vn -0.3827 -0.0000 0.9239
vn -0.7071 -0.0000 0.7071
vn -0.9239 -0.0000 0.3827
vn -1.0000 -0.0000 -0.0000
vn -0.9239 -0.0000 -0.3827
vn -0.7071 -0.0000 -0.7071
vn -0.3827 -0.0000 -0.9239
vt 0.692150 0.389662
vt 0.750000 0.401169
vt 0.750000 0.401169
vt 0.692150 0.389662
vt 0.807850 0.389662
vt 0.807850 0.389662
vt 0.807850 0.110338
vt 0.750000 0.098830
vt 0.750000 0.098830
vt 0.643107 0.356893
vt 0.643107 0.356893
vt 0.856893 0.143107
vt 0.856893 0.143107
vt 0.610337 0.307850
vt 0.610337 0.307850
vt 0.889662 0.192150
vt 0.889662 0.192150
vt 0.598831 0.250000
vt 0.901169 0.250000
vt 0.610338 0.192150
vt 0.610338 0.192150
vt 0.889662 0.307850
vt 0.889663 0.307850
vt 0.643107 0.143107
vt 0.856893 0.356893
vt 0.692150 0.110338
vt 0.692150 0.110338
s 1
usemtl Material.001
f 48/1/16 63/4/16 64/3/1 33/2/1
f 33/2/1 64/3/1 52/6/2 34/5/2
f 40/7/8 62/7/8 50/9/9 41/8/9
f 47/10/15 61/11/15 63/4/16 48/1/16
f 39/12/7 60/13/7 62/7/8 40/7/8
f 46/14/14 59/15/14 61/11/15 47/10/15
f 38/16/6 58/17/6 60/13/7 39/12/7
f 45/18/13 57/18/13 59/15/14 46/14/14
f 37/19/5 56/19/5 58/17/6 38/16/6
f 44/20/12 55/21/12 57/18/13 45/18/13
f 36/22/4 54/23/4 56/19/5 37/19/5
f 43/24/11 53/24/11 55/21/12 44/20/12
f 35/25/3 51/25/3 54/23/4 36/22/4
f 42/26/10 49/27/10 53/24/11 43/24/11
f 34/5/2 52/6/2 51/25/3 35/25/3
f 41/8/9 50/9/9 49/27/10 42/26/10
l 1 2
l 2 3
l 3 4
l 4 5
l 5 6
l 6 7
l 7 8
l 8 9
l 9 10
l 10 11
l 11 12
l 12 13
l 13 14
l 14 15
l 15 16
l 16 1
l 32 31
l 20 32
l 18 30
l 31 29
l 30 28
l 29 27
l 28 26
l 27 25
l 26 24
l 25 23
l 24 22
l 23 21
l 22 19
l 21 17
l 19 20
l 17 18
