# Blender 4.3.2
# www.blender.org
mtllib Arch_WallCorner.mtl
o wall.003
v -1.200000 -1.200000 -0.089600
v -1.200000 1.200000 -0.089600
v 1.200000 -1.200000 -0.089600
v 1.200000 1.200000 -0.089600
v -1.200000 -1.200000 0.089600
v -1.200000 1.200000 0.089600
v 1.200000 -1.200000 0.089600
v 1.200000 1.200000 0.089600
v 1.360563 -1.203485 -0.166362
v 1.360563 1.196515 -0.166362
v 1.360563 -1.203485 -2.566362
v 1.360563 1.196515 -2.566362
v 1.539763 -1.203485 -0.166362
v 1.539763 1.196515 -0.166362
v 1.539763 -1.203485 -2.566362
v 1.539763 1.196515 -2.566362
v 1.544156 -1.202543 -0.164848
v 1.544156 1.191118 -0.164848
v 1.545532 -1.202543 -0.035964
v 1.545532 1.191118 -0.035964
v 1.346486 -1.202543 -0.162737
v 1.346486 1.191118 -0.162737
v 1.347863 -1.202543 -0.033853
v 1.347863 1.191118 -0.033853
v 1.546898 -1.202543 0.091986
v 1.546898 1.191118 0.091986
v 1.349229 -1.202543 0.094098
v 1.349229 1.191118 0.094098
v 1.202863 1.191118 -0.032305
v 1.202863 -1.202543 -0.032305
v 1.204229 1.191118 0.095646
v 1.204229 -1.202543 0.095646
vn -0.0000 -0.0000 -1.0000
vn 1.0000 -0.0000 -0.0000
vn -0.0000 -0.0000 1.0000
vn -1.0000 -0.0000 -0.0000
vn -0.0000 -1.0000 -0.0000
vn -0.0000 1.0000 -0.0000
vn 0.9999 -0.0000 -0.0107
vn -0.9999 -0.0000 0.0107
vn -0.0107 -0.0000 -0.9999
vn 0.0107 -0.0000 0.9999
vt 0.333333 0.333333
vt 0.000000 0.333333
vt 0.000000 0.000000
vt 0.333333 0.000000
vt 0.333333 0.602439
vt 0.000000 0.602439
vt 0.000000 0.397561
vt 0.333333 0.397561
vt 0.666667 0.333333
vt 0.333333 0.333333
vt 0.333333 0.000000
vt 0.666667 0.000000
vt 0.733970 0.870027
vt 0.400636 0.870027
vt 0.400636 0.689962
vt 0.733970 0.689962
vt 0.333333 0.666667
vt 0.333333 1.000000
vt 0.000000 1.000000
vt 0.000000 0.666667
vt 0.666667 0.666667
vt 0.666667 1.000000
vt 0.333333 1.000000
vt 0.333333 0.666667
vt 0.345735 0.867522
vt 0.012402 0.867522
vt 0.012402 0.662645
vt 0.345735 0.662645
vt 0.741720 0.586341
vt 0.408387 0.586341
vt 0.408387 0.406276
vt 0.741721 0.406276
vt 0.375000 0.000000
vt 0.625000 0.000000
vt 0.625000 0.250000
vt 0.375000 0.250000
vt 0.586663 0.802288
vt 0.336663 0.802288
vt 0.375000 0.500000
vt 0.625000 0.500000
vt 0.625000 0.750000
vt 0.375000 0.750000
vt 0.625000 1.000000
vt 0.375000 1.000000
vt 0.125000 0.500000
vt 0.125000 0.750000
vt 0.875000 0.500000
vt 0.875000 0.750000
vt 0.370349 0.079478
vt 0.620349 0.079478
vt 0.620349 0.329478
vt 0.370349 0.329478
vt 0.378100 0.526353
vt 0.628100 0.526353
s 0
usemtl Material.001
f 1/1/1 2/2/1 4/3/1 3/4/1
f 3/5/2 4/6/2 8/7/2 7/8/2
f 7/9/3 8/10/3 6/11/3 5/12/3
f 5/13/4 6/14/4 2/15/4 1/16/4
f 3/17/5 7/18/5 5/19/5 1/20/5
f 8/21/6 4/22/6 2/23/6 6/24/6
f 9/1/4 10/2/4 12/3/4 11/4/4
f 11/25/1 12/26/1 16/27/1 15/28/1
f 15/9/2 16/10/2 14/11/2 13/12/2
f 13/29/3 14/30/3 10/31/3 9/32/3
f 11/17/5 15/18/5 13/19/5 9/20/5
f 16/21/6 12/22/6 10/23/6 14/24/6
f 17/33/7 18/34/7 20/35/7 19/36/7
f 20/37/6 24/38/6 28/38/6 26/37/6
f 23/39/8 24/40/8 22/41/8 21/42/8
f 21/42/9 22/41/9 18/43/9 17/44/9
f 19/45/5 23/39/5 21/42/5 17/46/5
f 24/40/6 20/47/6 18/48/6 22/41/6
f 25/49/10 26/50/10 28/51/10 27/52/10
f 19/36/7 20/35/7 26/35/7 25/36/7
f 28/40/6 24/40/6 29/40/6 31/40/6
f 23/39/5 19/45/5 25/45/5 27/39/5
f 29/40/8 30/39/8 32/39/8 31/40/8
f 23/39/5 27/39/5 32/39/5 30/39/5
f 24/40/9 23/39/9 30/39/9 29/40/9
f 27/53/10 28/54/10 31/54/10 32/53/10
