# Blender 4.3.2
# www.blender.org
mtllib Arch_WindowWall.mtl
o wall_window
v -0.089600 -1.200000 1.200000
v -0.089600 1.200000 1.200000
v -0.089600 -1.200000 -1.200000
v -0.089600 1.200000 -1.200000
v 0.089600 -1.200000 1.200000
v 0.089600 1.200000 1.200000
v 0.089600 -1.200000 -1.200000
v 0.089600 1.200000 -1.200000
v -0.089600 -0.395143 1.200000
v -0.089600 -0.395143 -1.200000
v 0.089600 -0.395143 -1.200000
v 0.089600 -0.395143 1.200000
v -0.089600 0.233911 1.200000
v -0.089600 0.233911 -1.200000
v 0.089600 0.233911 -1.200000
v 0.089600 0.233911 1.200000
v -0.089600 -1.200000 -0.399971
v -0.089600 -1.200000 0.400029
v -0.089600 1.200000 0.400029
v -0.089600 1.200000 -0.399971
v 0.089600 -1.200000 0.400029
v 0.089600 -1.200000 -0.399971
v 0.089600 1.200000 -0.399971
v 0.089600 1.200000 0.400029
v 0.089600 -0.395143 -0.399971
v 0.089600 -0.395143 0.400029
v -0.089600 -0.395143 0.400029
v -0.089600 -0.395143 -0.399971
v 0.089600 0.233911 -0.399971
v 0.089600 0.233911 0.400029
v -0.089600 0.233911 0.400029
v -0.089600 0.233911 -0.399971
v -0.066986 -0.140683 0.074414
v -0.066986 -0.018280 0.074414
v -0.066986 -0.140683 -0.044098
v -0.066986 -0.018280 -0.044098
v 0.066986 -0.140683 0.074414
v 0.066986 -0.018280 0.074414
v 0.066986 -0.140683 -0.044098
v 0.066986 -0.018280 -0.044098
v -0.089600 1.200000 0.073827
v 0.089600 1.200000 0.073827
v 0.089600 0.233911 0.073827
v -0.089600 0.233911 0.073827
v -0.089600 1.200000 -0.043638
v -0.089600 0.233911 -0.043638
v 0.089600 1.200000 -0.043638
v 0.089600 0.233911 -0.043638
v -0.089600 -1.200000 -0.043802
v 0.089600 -1.200000 -0.043802
v 0.089600 -0.395143 -0.043802
v -0.089600 -0.395143 -0.043802
v -0.089600 -1.200000 0.071406
v 0.089600 -0.395143 0.071406
v 0.089600 -1.200000 0.071406
v -0.089600 -0.395143 0.071406
v 0.089600 -0.140716 1.200000
v -0.089600 -0.140716 1.200000
v -0.089600 -0.140716 0.400029
v 0.089600 -0.140716 0.400029
v -0.089600 -0.022188 1.200000
v 0.089600 -0.022188 1.200000
v -0.089600 -0.022188 0.400029
v 0.089600 -0.022188 0.400029
v -0.089600 -0.140622 -1.200000
v 0.089600 -0.140622 -1.200000
v -0.089600 -0.140622 -0.399971
v 0.089600 -0.140622 -0.399971
v -0.089600 -0.019762 -1.200000
v 0.089600 -0.019762 -1.200000
v -0.089600 -0.019762 -0.399971
v 0.089600 -0.019762 -0.399971
vn -1.0000 -0.0000 -0.0000
vn -0.0000 -0.0000 -1.0000
vn 1.0000 -0.0000 -0.0000
vn -0.0000 -0.0000 1.0000
vn -0.0000 -1.0000 -0.0000
vn -0.0000 1.0000 -0.0000
vn 0.9976 -0.0000 -0.0693
vn -0.9976 -0.0000 -0.0693
vn 0.9961 0.0885 -0.0000
vn -0.9961 0.0885 -0.0000
vn 0.9980 -0.0000 0.0634
vn -0.9980 -0.0000 0.0634
vn -0.9960 -0.0893 -0.0000
vn 0.9960 -0.0893 -0.0000
vn -0.0000 0.9999 0.0120
vn -0.0000 0.0023 1.0000
vn -0.0000 1.0000 -0.0042
vn -0.0000 -0.0118 0.9999
vn -0.0000 -0.0012 -1.0000
vn -0.0000 -1.0000 -0.0002
vn -0.0000 0.0018 -1.0000
vt 0.134179 0.111115
vt 0.000000 0.111115
vt 0.000000 0.000000
vt 0.134179 0.000000
vt 0.514018 0.350427
vt 0.379839 0.350427
vt 0.379839 0.017093
vt 0.514018 0.017093
vt 0.454081 0.389073
vt 0.319902 0.389073
vt 0.319902 0.277966
vt 0.454081 0.277966
vt 0.200878 0.996900
vt 0.066699 0.996900
vt 0.066699 0.663566
vt 0.200878 0.663566
vt 0.444440 0.000000
vt 0.444440 0.333333
vt 0.333333 0.333333
vt 0.333333 0.000000
vt 0.222226 1.000000
vt 0.222226 0.666667
vt 0.333333 0.666667
vt 0.333333 1.000000
vt 0.400032 0.996900
vt 0.288247 0.996900
vt 0.288247 0.663566
vt 0.400033 0.663566
vt 0.653235 0.389073
vt 0.541449 0.389073
vt 0.541449 0.277966
vt 0.653235 0.277966
vt 0.713172 0.350427
vt 0.601387 0.350427
vt 0.601387 0.017093
vt 0.713172 0.017093
vt 0.333333 0.111115
vt 0.221548 0.111115
vt 0.221548 0.000000
vt 0.333333 0.000000
vt 0.236448 0.996900
vt 0.236448 0.663566
vt 0.169748 0.444440
vt 0.134179 0.444440
vt 0.134179 0.333333
vt 0.169748 0.333333
vt 0.549251 0.350427
vt 0.549251 0.017093
vt 0.169411 0.111115
vt 0.169411 0.000000
vt 0.169748 0.333333
vt 0.134179 0.333333
vt 0.134179 0.222226
vt 0.169748 0.222226
vt 0.463475 0.903847
vt 0.463475 0.570513
vt 0.509117 0.570513
vt 0.509117 0.903847
vt 0.169411 0.666667
vt 0.134179 0.666667
vt 0.134179 0.555552
vt 0.169411 0.555552
vt 0.801153 0.666667
vt 0.765584 0.666667
vt 0.765584 0.333333
vt 0.801153 0.333333
vt 0.333333 0.333333
vt 0.221548 0.333333
vt 0.221548 0.222226
vt 0.333333 0.222226
vt 0.333333 0.160583
vt 0.221548 0.160583
vt 0.653235 0.611299
vt 0.541449 0.611299
vt 0.541449 0.500184
vt 0.653235 0.500184
vt 0.653235 0.434715
vt 0.541449 0.434715
vt 0.000000 1.000000
vt 0.000000 0.666667
vt 0.111115 0.666667
vt 0.111115 1.000000
vt 0.176920 1.000000
vt 0.176920 0.666667
vt 0.666667 0.000000
vt 0.666667 0.333333
vt 0.555552 0.333333
vt 0.555552 0.000000
vt 0.490083 0.000000
vt 0.490082 0.333333
vt 0.135409 0.482108
vt 0.001230 0.482108
vt 0.001230 0.370993
vt 0.135409 0.370993
vt 0.134179 0.489746
vt 0.000000 0.489746
vt 0.000000 0.444440
vt 0.000000 0.333333
vt 0.000000 0.222226
vt 0.134179 0.160606
vt 0.000000 0.160606
vt 0.761463 1.000000
vt 0.716157 1.000000
vt 0.716157 0.666667
vt 0.761463 0.666667
vt 0.824026 0.001550
vt 0.824026 0.334883
vt 0.788794 0.334883
vt 0.788794 0.001550
vt 0.898384 0.065888
vt 0.881384 0.065887
vt 0.881385 0.049427
vt 0.898385 0.049428
vt 0.881383 0.160540
vt 0.898384 0.160539
vt 0.898385 0.176999
vt 0.881385 0.177000
vt 0.000000 0.176920
vt 0.134179 0.176920
vt 0.134179 0.506061
vt 0.000000 0.506061
vt 0.160606 1.000000
vt 0.160606 0.666667
vt 0.131718 0.478037
vt -0.002461 0.478037
vt -0.002461 0.428546
vt 0.131718 0.428546
vt 0.716157 0.333333
vt 0.666667 0.333333
vt 0.666667 0.000000
vt 0.716157 0.000000
vt 0.506084 0.333333
vt 0.506084 0.000000
vt 0.541449 0.450716
vt 0.653235 0.450716
vt 0.333333 0.176584
vt 0.221548 0.176584
vt 0.665116 0.914698
vt 0.665116 0.581365
vt 0.714584 0.581365
vt 0.714584 0.914698
vt 0.846146 1.000000
vt 0.810809 1.000000
vt 0.810809 0.666667
vt 0.846146 0.666667
vt 0.186210 0.333333
vt 0.186210 0.222226
vt 0.221548 0.444440
vt 0.186210 0.444440
vt 0.186210 0.333333
vt 0.221548 0.333333
vt 0.252910 0.996900
vt 0.252910 0.663566
vt 0.800934 0.666667
vt 0.800934 1.000000
vt 0.765584 1.000000
vt 0.765584 0.666667
vt 0.221548 0.666667
vt 0.186197 0.666667
vt 0.186197 0.555552
vt 0.221548 0.555552
vt 0.186197 0.111115
vt 0.186197 0.000000
vt 0.554881 0.666667
vt 0.519531 0.666667
vt 0.519531 0.333333
vt 0.554881 0.333333
vt 0.502745 0.666667
vt 0.502745 0.333333
vt 0.897846 0.222223
vt 0.881383 0.222225
vt 0.645702 0.303068
vt 0.645703 0.348292
vt 0.629241 0.348291
vt 0.628702 0.303067
vt 0.881384 0.348418
vt 0.881770 0.306353
vt 0.897772 0.306353
vt 0.897843 0.348418
vt 0.897843 0.348418
vt 0.897771 0.390482
vt 0.881770 0.390482
vt 0.881383 0.348418
vt 0.881388 0.111114
vt 0.898174 0.111112
vt 0.881594 0.000000
vt 0.898380 0.000001
vt 0.881383 0.222225
vt 0.897843 0.222225
vt 0.897762 0.264289
vt 0.881447 0.264289
vt 0.897843 0.306353
vt 0.881383 0.306353
vt 0.881447 0.264289
vt 0.897762 0.264289
vt 0.810809 0.000000
vt 0.810809 0.333333
vt 0.765584 0.291269
vt 0.765584 0.042064
vt 0.846151 0.666667
vt 0.881178 0.708731
vt 0.881178 0.957935
vt 0.846151 1.000000
vt 0.716157 -0.000000
vt 0.765584 0.291269
vt 0.716157 0.333333
vt 0.593469 0.237180
vt 0.593469 0.570513
vt 0.558127 0.528449
vt 0.558127 0.279244
vt 0.846151 0.666667
vt 0.810809 0.624602
vt 0.810809 0.375398
vt 0.846151 0.333333
vt 0.716093 0.666667
vt 0.716093 1.000000
vt 0.666667 0.957935
vt 0.666667 0.708731
vt 0.846151 0.666667
vt 0.846151 0.333333
vt 0.881178 0.375398
vt 0.881178 0.624602
s 0
usemtl Material.001
f 32/1/1 20/2/1 4/3/1 14/4/1
f 14/5/2 4/6/2 8/7/2 15/8/2
f 30/9/3 24/10/3 6/11/3 16/12/3
f 16/13/4 6/14/4 2/15/4 13/16/4
f 18/17/5 21/18/5 5/19/5 1/20/5
f 24/21/6 19/22/6 2/23/6 6/24/6
f 5/25/4 12/26/4 9/27/4 1/28/4
f 21/29/3 26/30/3 12/31/3 5/32/3
f 3/33/2 10/34/2 11/35/2 7/36/2
f 17/37/1 28/38/1 10/39/1 3/40/1
f 62/41/4 16/13/4 13/16/4 61/42/4
f 64/43/3 30/44/3 16/45/3 62/46/3
f 69/47/2 14/5/2 15/8/2 70/48/2
f 71/49/1 32/1/1 14/4/1 69/50/1
f 61/51/1 13/52/1 31/53/1 63/54/1
f 54/55/6 56/56/6 27/57/6 26/58/6
f 70/59/3 15/60/3 29/61/3 72/62/3
f 63/63/2 31/64/2 30/65/2 64/66/2
f 1/67/1 9/68/1 27/69/1 18/70/1
f 49/71/1 52/72/1 28/38/1 17/37/1
f 7/73/3 11/74/3 25/75/3 22/76/3
f 55/77/3 54/78/3 26/30/3 21/29/3
f 8/79/6 4/80/6 20/81/6 23/82/6
f 42/83/6 41/84/6 19/22/6 24/21/6
f 3/85/5 7/86/5 22/87/5 17/88/5
f 53/89/5 55/90/5 21/18/5 18/17/5
f 15/91/3 8/92/3 23/93/3 29/94/3
f 43/95/3 42/96/3 24/97/3 30/44/3
f 13/52/1 2/98/1 19/99/1 31/53/1
f 46/100/1 45/101/1 20/2/1 32/1/1
f 43/102/5 30/103/5 31/104/5 44/105/5
f 71/106/4 72/107/4 29/108/4 32/109/4
f 33/110/1 34/111/1 36/112/1 35/113/1
f 39/114/3 40/115/3 38/116/3 37/117/3
f 31/53/1 19/99/1 41/118/1 44/119/1
f 48/120/3 47/121/3 42/96/3 43/95/3
f 47/122/6 45/123/6 41/84/6 42/83/6
f 23/82/6 20/81/6 45/123/6 47/122/6
f 29/124/3 23/125/3 47/126/3 48/127/3
f 29/128/5 48/129/5 46/130/5 32/131/5
f 44/119/1 41/118/1 45/101/1 46/100/1
f 17/88/5 22/87/5 50/132/5 49/133/5
f 22/76/3 25/75/3 51/134/3 50/135/3
f 53/136/1 56/137/1 52/72/1 49/71/1
f 25/138/6 28/139/6 52/140/6 51/141/6
f 18/70/1 27/69/1 56/137/1 53/136/1
f 49/133/5 50/132/5 55/90/5 53/89/5
f 50/135/3 51/134/3 54/78/3 55/77/3
f 27/142/2 59/143/2 60/144/2 26/145/2
f 9/68/1 58/146/1 59/147/1 27/69/1
f 26/148/3 60/149/3 57/150/3 12/151/3
f 12/26/4 57/152/4 58/153/4 9/27/4
f 58/146/1 61/51/1 63/54/1 59/147/1
f 60/149/3 64/43/3 62/46/3 57/150/3
f 57/152/4 62/41/4 61/42/4 58/153/4
f 28/154/4 25/155/4 68/156/4 67/157/4
f 11/158/3 66/159/3 68/160/3 25/161/3
f 28/38/1 67/162/1 65/163/1 10/39/1
f 10/164/2 65/165/2 66/166/2 11/167/2
f 66/159/3 70/59/3 72/62/3 68/160/3
f 67/162/1 71/49/1 69/50/1 65/163/1
f 65/165/2 69/168/2 70/169/2 66/166/2
f 37/117/7 38/116/7 64/170/7 60/171/7
f 33/172/8 59/173/8 63/174/8 34/175/8
f 37/176/9 54/177/9 51/178/9 39/179/9
f 35/180/10 52/181/10 56/182/10 33/183/10
f 39/114/11 68/184/11 72/185/11 40/115/11
f 35/113/12 36/112/12 71/186/12 67/187/12
f 36/188/13 34/189/13 44/190/13 46/191/13
f 38/192/14 40/193/14 48/194/14 43/195/14
f 63/196/15 64/197/15 38/198/15 34/199/15
f 44/200/16 34/201/16 38/202/16 43/203/16
f 71/204/17 36/199/17 40/205/17 72/206/17
f 56/207/18 54/208/18 37/209/18 33/210/18
f 52/211/19 35/212/19 39/213/19 51/214/19
f 67/215/20 68/216/20 39/217/20 35/218/20
f 46/219/21 48/220/21 40/221/21 36/222/21
