# Blender 4.3.2
# www.blender.org
mtllib Arch_Doorway.mtl
o wall_door
v -0.089600 -1.200000 1.200000
v -0.089600 1.200000 1.200000
v -0.089600 -1.200000 -1.200000
v -0.089600 1.200000 -1.200000
v 0.089600 -1.200000 1.200000
v 0.089600 1.200000 1.200000
v 0.089600 -1.200000 -1.200000
v 0.089600 1.200000 -1.200000
v -0.089600 -1.200000 -0.400629
v -0.089600 -1.200000 0.399371
v -0.089600 1.200000 0.399371
v -0.089600 1.200000 -0.400629
v 0.089600 -1.200000 0.399371
v 0.089600 -1.200000 -0.400629
v 0.089600 1.200000 -0.400629
v 0.089600 1.200000 0.399371
v -0.089600 0.000000 1.200000
v -0.089600 0.000000 -1.200000
v 0.089600 0.000000 -1.200000
v 0.089600 0.000000 1.200000
v 0.089600 0.000000 -0.400629
v 0.089600 0.000000 0.399371
v -0.089600 0.000000 0.399371
v -0.089600 0.000000 -0.400629
v -0.089600 -1.185600 -1.200000
v 0.089600 -1.185600 -1.200000
v 0.089600 -1.185600 1.200000
v 0.089600 -1.185600 -0.400629
v 0.089600 -1.185600 0.399371
v -0.089600 -1.185600 0.399371
v -0.089600 -1.185600 -0.400629
v -0.089600 -1.185600 1.200000
v 0.033996 0.000000 0.399371
v -0.023644 0.000000 0.399371
v 0.008586 0.000000 -0.400629
v -0.008586 0.000000 -0.400629
v 0.008586 -1.185600 -0.400629
v -0.008586 -1.185600 -0.400629
v 0.008586 0.000000 0.399371
v -0.008586 0.000000 0.399371
v 0.008586 -1.185600 0.399371
v -0.008586 -1.185600 0.399371
v 0.008586 0.000000 -0.739116
v -0.008586 0.000000 -0.739116
v 0.008586 -1.185600 -0.739116
v -0.008586 -1.185600 -0.739116
v 0.008586 0.000000 0.737858
v -0.008586 0.000000 0.737858
v 0.008586 -1.185600 0.737858
v -0.008586 -1.185600 0.737858
vn -1.0000 -0.0000 -0.0000
vn -0.0000 -0.0000 -1.0000
vn 1.0000 -0.0000 -0.0000
vn -0.0000 -0.0000 1.0000
vn -0.0000 1.0000 -0.0000
vn -0.0000 -1.0000 -0.0000
vt 0.166667 0.111024
vt 0.000000 0.111024
vt 0.000000 0.000000
vt 0.166667 0.000000
vt 0.751091 0.338025
vt 0.584424 0.338025
vt 0.584424 0.004692
vt 0.751091 0.004692
vt 0.500000 0.111199
vt 0.333333 0.111198
vt 0.333333 0.000000
vt 0.500000 0.000000
vt 0.757333 0.334925
vt 0.590666 0.334925
vt 0.590666 0.001591
vt 0.757333 0.001591
vt 0.111199 0.666667
vt 0.111198 1.000000
vt 0.000000 1.000000
vt 0.000000 0.666667
vt 0.333333 0.666667
vt 0.333333 1.000000
vt 0.222310 1.000000
vt 0.222310 0.666667
vt 0.824790 0.515972
vt 0.824790 0.666667
vt 0.713679 0.666667
vt 0.713679 0.515972
vt 0.500000 0.333333
vt 0.333333 0.333333
vt 0.333333 0.222310
vt 0.500000 0.222310
vt 0.166667 0.333333
vt 0.000000 0.333333
vt 0.000000 0.222135
vt 0.166667 0.222135
vt 0.888976 0.000000
vt 0.888976 0.333333
vt 0.777865 0.333333
vt 0.777865 0.000000
vt 0.331333 0.333333
vt 0.331333 0.222135
vt 1.000000 0.333333
vt 1.000000 0.000000
vt 0.664667 0.333333
vt 0.664667 0.222310
vt 0.353077 0.989107
vt 0.188411 0.989107
vt 0.188411 0.655774
vt 0.353077 0.655774
vt 0.664667 0.111199
vt 0.664667 0.000000
vt 0.518907 0.333375
vt 0.354240 0.333375
vt 0.354240 0.000041
vt 0.518907 0.000041
vt 0.331333 0.111024
vt 0.331333 0.000000
vt 0.333333 0.111024
vt 0.333333 0.000000
vt 0.333333 0.666667
vt 0.331333 0.666667
vt 0.331333 0.333333
vt 0.333333 0.333333
vt 0.666667 0.111199
vt 0.666667 0.000000
vt 0.666667 0.666667
vt 0.664667 0.666667
vt 0.664667 0.333333
vt 0.666667 0.333333
vt 0.666667 0.333333
vt 0.666667 0.222310
vt 0.333333 0.333333
vt 0.333333 0.222135
vt 0.642151 0.831333
vt 0.491456 0.831333
vt 0.491456 0.666667
vt 0.642151 0.666667
vt 0.333333 0.666667
vt 0.444444 0.666667
vt 0.444444 0.817362
vt 0.444444 0.849305
vt 0.444444 1.000000
vt 0.333333 1.000000
vt 0.333333 0.896570
vt 0.333333 0.789353
vt 0.792846 0.666667
vt 0.792846 0.831333
vt 0.666667 0.333333
vt 0.666667 0.000000
vt 0.943541 0.666667
vt 0.943541 0.831333
vt 0.965826 0.333333
vt 0.965826 0.498000
vt 0.918814 0.498000
vt 0.918814 0.333333
vt 0.642151 0.996000
vt 0.491456 0.996000
vt 0.491456 0.831333
vt 0.642151 0.831333
vt 0.871802 0.498000
vt 0.871802 0.333333
vt 0.824790 0.333333
vt 0.824790 0.484028
vt 0.713679 0.484028
vt 0.713679 0.333333
vt 0.943541 0.831333
vt 0.943541 0.666667
vt 0.975485 0.666667
vt 0.975485 0.831333
vt 0.674095 0.996000
vt 0.642151 0.996000
vt 0.674095 0.831333
vt 0.666667 0.515972
vt 0.666667 0.484028
vt 0.706038 0.878345
vt 0.674095 0.878345
vt 0.674095 0.831333
vt 0.706038 0.831333
vt 0.871802 0.484028
vt 0.871802 0.515972
vt 0.491456 0.817362
vt 0.491456 0.849305
vt 0.918814 0.498000
vt 0.918814 0.662667
vt 0.871802 0.662667
vt 0.871802 0.498000
vt 0.965826 0.498000
vt 0.965826 0.662667
s 0
usemtl Material.001
f 24/1/1 12/2/1 4/3/1 18/4/1
f 18/5/2 4/6/2 8/7/2 19/8/2
f 22/9/3 16/10/3 6/11/3 20/12/3
f 20/13/4 6/14/4 2/15/4 17/16/4
f 16/17/5 11/18/5 2/19/5 6/20/5
f 8/21/5 4/22/5 12/23/5 15/24/5
f 15/24/5 12/23/5 11/18/5 16/17/5
f 38/25/5 31/26/5 30/27/5 42/28/5
f 19/29/3 8/30/3 15/31/3 21/32/3
f 21/32/3 15/31/3 16/10/3 22/9/3
f 17/33/1 2/34/1 11/35/1 23/36/1
f 23/36/1 11/35/1 12/2/1 24/1/1
f 9/37/6 14/38/6 13/39/6 10/40/6
f 32/41/1 17/33/1 23/36/1 30/42/1
f 7/43/6 14/38/6 9/37/6 3/44/6
f 26/45/3 19/29/3 21/32/3 28/46/3
f 27/47/4 20/48/4 17/49/4 32/50/4
f 29/51/3 22/9/3 20/12/3 27/52/3
f 25/53/2 18/54/2 19/55/2 26/56/2
f 31/57/1 24/1/1 18/4/1 25/58/1
f 9/59/1 31/57/1 25/58/1 3/60/1
f 3/61/2 25/62/2 26/63/2 7/64/2
f 13/65/3 29/51/3 27/52/3 5/66/3
f 5/67/4 27/68/4 32/69/4 1/70/4
f 7/71/3 26/45/3 28/46/3 14/72/3
f 14/72/3 28/46/3 29/51/3 13/65/3
f 1/73/1 32/41/1 30/42/1 10/74/1
f 10/74/1 30/42/1 31/57/1 9/59/1
f 42/75/2 30/76/2 23/77/2 40/78/2
f 23/79/6 24/80/6 36/81/6 35/82/6 21/83/6 22/84/6 33/85/6 34/86/6
f 38/75/4 36/78/4 24/87/4 31/88/4
f 10/40/6 13/39/6 5/89/6 1/90/6
f 28/88/4 21/87/4 35/91/4 37/92/4
f 36/93/3 38/94/3 46/95/3 44/96/3
f 29/97/2 41/98/2 39/99/2 22/100/2
f 42/101/3 40/102/3 48/96/3 50/95/3
f 28/103/5 37/104/5 41/105/5 29/106/5
f 37/104/5 38/25/5 42/28/5 41/105/5
f 45/107/4 43/108/4 44/109/4 46/110/4
f 49/111/2 50/112/2 48/75/2 47/113/2
f 41/105/5 42/28/5 50/114/5 49/115/5
f 40/116/6 39/117/6 47/118/6 48/119/6
f 38/25/5 37/104/5 45/120/5 46/121/5
f 35/82/6 36/81/6 44/122/6 43/123/6
f 39/124/1 41/125/1 49/126/1 47/127/1
f 37/125/1 35/124/1 43/128/1 45/129/1
