# Blender 4.4.0
# www.blender.org
mtllib table.mtl
o uploads_files_821916_Table
v -3.313934 3.422521 1.981209
v -3.304060 3.422521 1.586559
v -3.695364 3.422521 1.576684
v -3.424728 2.973593 1.594087
v -3.605278 2.973593 -1.611003
v -3.424728 2.973593 -1.611003
v -3.403822 2.994499 1.594087
v -3.605278 2.973593 1.594087
v 3.424728 2.973593 1.594087
v 3.605278 2.973593 -1.611003
v 3.605278 2.973593 1.594087
v 3.626184 3.425034 1.594087
v 3.424728 2.973593 -1.611003
v -3.334472 2.972753 1.876997
v 3.334472 2.972753 1.680900
v 3.334472 2.972753 1.876997
v 3.334472 2.986726 1.666923
v 3.334472 2.986726 1.890970
v -3.334472 2.972752 -1.876997
v 3.334472 2.972752 -1.680901
v -3.334472 2.972752 -1.680901
v 3.334472 2.986726 -1.890971
v -3.973339 3.598706 1.951212
v -3.916315 3.598706 2.124301
v -3.973339 3.598706 -1.951213
v 3.973339 3.598706 -1.951213
v 3.973339 3.598706 1.951212
v -3.743594 3.587521 -2.192308
v 3.798428 3.414671 2.177642
v -3.798428 3.598706 2.177642
v 3.916315 3.420408 -2.124302
v 3.969656 3.598706 2.006414
v -3.973339 3.415606 -1.951213
v -3.969656 3.598706 -2.006415
v 3.743594 3.587521 -2.192308
v 3.798428 3.598706 -2.177643
v -3.980560 3.587522 2.007999
v -3.969656 3.598706 2.006414
v -3.959869 3.587522 2.077599
v -3.949911 3.598706 2.072966
v -3.924145 3.587526 2.132131
v -3.869613 3.587522 2.167855
v -3.864980 3.598706 2.157897
v -3.800009 3.587522 2.188546
v 3.800013 3.587522 2.188546
v 3.798428 3.598706 2.177642
v 3.869613 3.587522 2.167855
v 3.864980 3.598706 2.157897
v 3.924145 3.587526 2.132131
v 3.915952 3.598706 2.123938
v 3.959869 3.587522 2.077599
v 3.949911 3.598706 2.072966
v 3.980560 3.587522 2.007999
v -3.800009 3.587521 -2.188546
v -3.798428 3.598706 -2.177643
v -3.869613 3.587521 -2.167856
v -3.864980 3.598706 -2.157897
v -3.924145 3.587526 -2.132132
v -3.916315 3.598706 -2.124302
v -3.959869 3.587526 -2.077600
v -3.949911 3.598706 -2.072967
v -3.980560 3.587521 -2.008000
v 3.980560 3.587526 -2.008000
v 3.969656 3.598706 -2.006415
v 3.959869 3.587526 -2.077600
v 3.949911 3.598706 -2.072967
v 3.924145 3.587526 -2.132132
v 3.916315 3.598706 -2.124302
v 3.869613 3.587521 -2.167856
v 3.864980 3.598706 -2.157897
v 3.800009 3.587521 -2.188546
v -3.798428 3.414671 2.177642
v 3.973339 3.420408 1.951212
v 3.984321 3.417559 -1.951581
v -3.973339 3.415606 1.951212
v -3.984321 3.417559 1.951580
v -3.800013 3.417559 2.188546
v 3.980560 3.417559 2.007999
v -3.980560 3.417559 -2.008000
v 3.800009 3.417559 -2.188546
v -3.980560 3.417559 2.007999
v -3.959869 3.417559 2.077599
v -3.924145 3.417559 2.132131
v -3.869613 3.417559 2.167855
v 3.800013 3.417559 2.188546
v 3.869613 3.417559 2.167855
v 3.924145 3.417559 2.132131
v 3.959869 3.417559 2.077599
v -3.800009 3.417559 -2.188546
v -3.869613 3.417559 -2.167856
v -3.924145 3.417559 -2.132132
v -3.959869 3.417559 -2.077600
v 3.980560 3.417559 -2.008000
v 3.959869 3.417559 -2.077600
v 3.924145 3.417559 -2.132132
v 3.869613 3.417559 -2.167856
v -3.626184 3.425034 1.594087
v 3.403822 3.425034 -1.611003
v -3.334472 2.972753 1.680900
v 3.334472 2.972752 -1.876997
v 3.334472 2.986726 -1.666923
v -3.743594 3.411202 -2.192308
v 3.743594 3.411202 -2.192308
v -3.605278 3.440062 -1.611003
v -3.424728 3.440062 -1.611003
v -3.403822 3.460968 1.594087
v -3.605278 3.440063 1.594087
v 3.424728 3.440063 1.594087
v 3.605278 3.440062 -1.611003
v 3.605278 3.440063 1.594087
v 3.424728 3.440062 -1.611003
v -3.334472 3.439223 1.876997
v 3.334472 3.439223 1.680900
v 3.334472 3.453196 1.890970
v -3.334472 3.439221 -1.876997
v 3.334472 3.439221 -1.680901
v -3.334472 3.439221 -1.680901
v -3.334472 3.439223 1.680900
v 3.334472 3.439221 -1.876997
v -3.605278 0.272429 -1.611003
v -3.424728 0.272429 -1.611003
v 3.424728 0.272429 1.594087
v 3.605278 0.272429 1.594087
v 3.334472 0.271589 1.680900
v 3.334472 0.271589 1.876997
v 3.334472 0.285562 1.890970
v -3.334472 0.271588 -1.876997
v -3.334472 0.271588 -1.680901
v -3.424728 0.272429 1.594087
v -3.605278 0.272429 1.594087
v -3.403822 0.293335 1.594087
v 3.605278 0.272429 -1.611003
v 3.424728 0.272429 -1.611003
v -3.334472 0.271589 1.876997
v -3.334472 0.271589 1.680900
v 3.334472 0.271588 -1.680901
v 3.334472 0.271588 -1.876997
vn -0.0000 -1.0000 -0.0000
vn -0.0000 -0.3837 0.9235
vn -0.0000 -0.7071 0.7071
vn -0.0000 1.0000 -0.0000
vn -0.1964 0.7102 -0.6760
vn -0.4208 0.5102 -0.7501
vn -0.0005 0.9096 -0.4154
vn -0.0028 0.9096 -0.4154
vn -0.7118 0.7007 0.0475
vn -0.6877 0.6968 0.2040
vn -0.6007 0.6961 0.3932
vn -0.3927 0.6969 0.6001
vn -0.1556 0.6488 0.7449
vn -0.0909 0.8614 0.4997
vn -0.2037 0.6981 0.6865
vn 0.2040 0.6968 0.6876
vn 0.1660 0.6523 0.7396
vn 0.3889 0.7128 0.5837
vn 0.5971 0.6965 0.3978
vn 0.6864 0.6981 0.2037
vn -0.2040 0.6968 -0.6876
vn -0.1659 0.6524 -0.7395
vn -0.3932 0.6961 -0.6007
vn -0.5999 0.6971 -0.3926
vn -0.6865 0.6981 -0.2037
vn 0.7117 0.7009 -0.0475
vn 0.6875 0.6969 -0.2040
vn 0.6007 0.6961 -0.3932
vn 0.3927 0.6969 -0.6001
vn 0.2037 0.6980 -0.6865
vn 0.2039 0.6964 -0.6881
vn -0.9978 -0.0000 0.0665
vn -0.9585 -0.0000 0.2850
vn -0.8365 -0.0000 0.5480
vn -0.5480 -0.0000 0.8365
vn -0.2705 0.0891 0.9586
vn -0.2850 -0.0000 0.9585
vn -0.1770 -0.0000 0.9842
vn 0.2850 -0.0000 0.9585
vn 0.1808 0.0295 0.9831
vn 0.5480 -0.0000 0.8365
vn 0.8365 -0.0000 0.5480
vn 0.9585 -0.0000 0.2850
vn -0.2849 -0.0000 -0.9585
vn -0.2174 -0.0459 -0.9750
vn -0.5480 -0.0000 -0.8365
vn -0.8365 -0.0000 -0.5480
vn -0.9585 -0.0000 -0.2850
vn 0.9978 -0.0000 -0.0665
vn 0.9585 -0.0000 -0.2850
vn 0.8365 -0.0000 -0.5480
vn 0.5480 -0.0000 -0.8365
vn 0.2849 -0.0000 -0.9585
vn 0.2169 0.0161 -0.9761
vn 0.9999 -0.0000 -0.0140
vn -1.0000 -0.0000 -0.0000
vn -0.0000 1.0000 0.0023
vn -0.0907 0.8620 0.4988
vn 0.0350 0.9980 0.0525
vn 0.0022 1.0000 0.0007
vn -0.9539 0.0572 -0.2946
vn 0.9237 -0.3831 -0.0000
vn 0.7071 -0.7071 -0.0000
vn -0.0000 -0.3832 -0.9237
vn -0.0000 -0.7071 -0.7071
vn 0.0453 0.7002 -0.7125
vn 0.0475 0.7007 -0.7119
vn -0.1480 0.8900 -0.4313
vn -0.6863 0.6981 0.2040
vn -0.5999 0.6969 0.3929
vn -0.3934 0.6961 0.6006
vn -0.2044 0.6968 0.6875
vn -0.1183 0.6902 0.7139
vn 0.1269 0.7057 0.6970
vn 0.1500 0.6536 0.7419
vn 0.2040 0.6981 0.6863
vn 0.3929 0.6969 0.5999
vn 0.5872 0.7122 0.3847
vn 0.6875 0.6968 0.2044
vn -0.1269 0.7057 -0.6970
vn -0.1498 0.6536 -0.7419
vn -0.2040 0.6980 -0.6865
vn -0.3929 0.6969 -0.5999
vn -0.6005 0.6961 -0.3934
vn -0.6874 0.6969 -0.2043
vn 0.6862 0.6982 -0.2040
vn 0.5998 0.6971 -0.3929
vn 0.3934 0.6961 -0.6006
vn 0.2044 0.6968 -0.6875
vn 0.0525 0.0350 0.9980
vn -0.4982 0.0936 0.8620
vn -0.0936 -0.4982 0.8620
vn 0.0350 -0.0525 0.9980
vn 0.9920 -0.0000 -0.1261
vn 0.0936 0.3820 -0.9194
vn 0.0665 -0.0000 -0.9978
vn 0.0017 -0.0315 -0.9995
vn -0.2137 0.0528 0.9755
vn -0.2849 -0.0000 0.9585
vn 0.2247 0.0645 0.9723
vn 0.1849 -0.0420 0.9819
vn -0.2249 0.0647 -0.9722
vn -0.2680 -0.0815 -0.9600
vn -0.9920 -0.0000 0.1261
vn -0.0475 0.9980 0.0416
vn 0.0328 -0.9994 -0.0149
vn 0.0118 0.6253 -0.7803
vn 0.3772 -0.0683 -0.9236
vn -0.0682 -0.3772 -0.9236
vn -0.6253 0.0118 -0.7803
vn 0.4378 0.0683 -0.8965
vn -0.0031 -0.0184 -0.9998
vn -0.0360 0.3706 -0.9281
vn 0.0528 -0.9980 0.0354
vn -0.4990 -0.8619 0.0903
vn 0.0144 -0.7808 -0.6247
vn 0.3777 -0.9236 0.0656
vn 0.1797 -0.9833 0.0282
vn 0.1576 -0.9875 -0.0006
vn 0.0922 -0.9956 0.0153
vn 0.2279 -0.9010 -0.3692
vn -0.1308 0.0615 -0.9895
vn 0.5720 -0.0118 -0.8202
vn -0.1105 -0.6227 -0.7746
vn -0.1282 -0.0555 -0.9902
vn -0.0148 -0.8662 0.4994
vn -0.0722 -0.9974 -0.0006
vn -0.1314 -0.9897 -0.0572
vn 0.5746 -0.8185 0.0030
vn -0.0000 -0.0000 -1.0000
vn -0.0000 -0.0000 1.0000
vn -0.0021 -0.0000 1.0000
vn 0.3797 -0.0005 0.9251
vn -0.0017 0.3816 0.9243
vn 1.0000 -0.0000 -0.0000
vn 0.9265 -0.0015 0.3762
vn 1.0000 -0.0000 -0.0065
vn 0.9240 0.3823 -0.0053
vn -0.6932 -0.0000 -0.7207
vn 0.6768 -0.3815 0.6296
vn 0.7388 -0.0000 0.6739
vn 0.4257 0.0049 0.9048
vn -0.6123 -0.0000 0.7906
vn 0.7007 -0.0000 -0.7134
vn 0.6123 -0.0000 0.7906
vn -0.7007 -0.0000 -0.7134
vn 0.7813 -0.0000 -0.6241
vn 0.6899 -0.3788 -0.6169
vn 0.4840 0.0270 -0.8747
vn -0.7224 -0.0000 0.6915
vn 0.0567 -0.9971 0.0499
vn -0.2226 -0.9650 0.1385
vn 0.0025 -1.0000 0.0023
vn -0.0025 -1.0000 0.0023
vn 0.0234 -0.9993 -0.0291
vn -0.0408 -0.9558 -0.2911
vn -0.1887 0.3324 -0.9241
vn 0.3697 0.0971 -0.9241
vn -0.9243 0.3309 -0.1901
vn -0.9243 0.0982 0.3688
vn 0.0397 -0.9992 -0.0000
vn -0.0444 -0.9988 -0.0202
vn -0.0646 -0.9975 -0.0294
vn 0.0260 -0.9997 0.0004
vt 0.700500 0.305400
vt 0.967300 0.290400
vt 0.967300 0.305400
vt 0.721600 0.062500
vt 0.988300 0.077500
vt 0.721600 0.077500
vt 0.562700 0.201300
vt 0.007600 0.217700
vt 0.007600 0.201300
vt 0.006600 0.175900
vt 0.561700 0.177500
vt 0.006600 0.177500
vt 0.561100 0.198300
vt 0.006000 0.182000
vt 0.561100 0.182000
vt 0.016900 0.633100
vt 0.019900 0.618700
vt 0.016300 0.952600
vt 0.027100 0.991200
vt 0.652900 0.991400
vt 0.023600 0.969600
vt 0.650300 0.971200
vt 0.946700 0.211300
vt 0.946700 0.212600
vt 0.942000 0.212600
vt 0.952700 0.211400
vt 0.952700 0.212700
vt 0.958100 0.211500
vt 0.957900 0.212800
vt 0.018500 0.607200
vt 0.018500 0.608500
vt 0.013300 0.608600
vt 0.024500 0.607100
vt 0.024500 0.608400
vt 0.665600 0.607400
vt 0.665600 0.608600
vt 0.659700 0.608600
vt 0.671000 0.607500
vt 0.670800 0.608800
vt 0.606800 0.169600
vt 0.606800 0.170900
vt 0.601600 0.171100
vt 0.612800 0.169600
vt 0.612700 0.170900
vt 0.663600 0.991400
vt 0.663600 0.992700
vt 0.657600 0.992700
vt 0.669000 0.991500
vt 0.668800 0.992800
vt 0.604200 0.210700
vt 0.604300 0.212000
vt 0.599000 0.212100
vt 0.610200 0.210700
vt 0.610200 0.212000
vt 0.949100 0.170200
vt 0.949100 0.171600
vt 0.944400 0.171600
vt 0.955100 0.170300
vt 0.955100 0.171600
vt 0.960500 0.170400
vt 0.960300 0.171700
vt 0.016400 0.991200
vt 0.016400 0.992500
vt 0.011200 0.992700
vt 0.022400 0.991200
vt 0.022300 0.992500
vt 0.942100 0.197000
vt 0.946800 0.197100
vt 0.952900 0.197100
vt 0.958400 0.197200
vt 0.012900 0.593100
vt 0.018400 0.593000
vt 0.024400 0.592900
vt 0.659700 0.593100
vt 0.665800 0.593200
vt 0.671300 0.593200
vt 0.601200 0.155500
vt 0.606600 0.155400
vt 0.612700 0.155400
vt 0.657700 0.977200
vt 0.663800 0.977200
vt 0.669200 0.977300
vt 0.598600 0.196500
vt 0.604100 0.196500
vt 0.610200 0.196400
vt 0.944500 0.156000
vt 0.949200 0.156000
vt 0.955300 0.156100
vt 0.960800 0.156200
vt 0.010800 0.977100
vt 0.016200 0.977000
vt 0.022300 0.977000
vt 0.662300 0.952700
vt 0.661900 0.962800
vt 0.659300 0.967100
vt 0.659700 0.618800
vt 0.662400 0.623100
vt 0.663000 0.633200
vt 0.670000 0.227600
vt 0.673000 0.232200
vt 0.675000 0.242700
vt 0.023800 0.616200
vt 0.029000 0.614600
vt 0.019600 0.967000
vt 0.017400 0.623000
vt 0.016900 0.962700
vt 0.015500 0.583300
vt 0.012500 0.578700
vt 0.010400 0.568200
vt 0.650400 0.614600
vt 0.655700 0.616200
vt 0.655500 0.969600
vt 0.665500 0.224600
vt 0.665500 0.586300
vt 0.659700 0.588000
vt 0.670000 0.583300
vt 0.020000 0.586300
vt 0.020000 0.224600
vt 0.025800 0.222900
vt 0.015500 0.227600
vt 0.700500 0.290400
vt 0.700500 0.314000
vt 0.700500 0.311600
vt 0.967300 0.311600
vt 0.988300 0.062500
vt 0.562700 0.217700
vt 0.006000 0.198300
vt 0.007500 0.097600
vt 0.007500 0.095900
vt 0.562700 0.095900
vt 0.013100 0.607300
vt 0.659600 0.607300
vt 0.601300 0.169700
vt 0.657600 0.991400
vt 0.598800 0.210800
vt 0.011000 0.991300
vt 0.662400 0.957200
vt 0.663000 0.628700
vt 0.674700 0.238000
vt 0.028900 0.971200
vt 0.016900 0.628600
vt 0.016300 0.957100
vt 0.010700 0.572900
vt 0.659700 0.222900
vt 0.025800 0.588000
vt 0.000000 0.000000
s 0
usemtl table
f 4/1/1 5/2/1 6/3/1
f 9/4/1 10/5/1 11/6/1
f 14/7/1 15/8/1 16/9/1
f 18/10/2 14/11/3 16/12/3
f 19/13/1 20/14/1 21/15/1
f 23/16/4 24/17/4 25/18/4
f 35/19/5 28/20/6 57/21/7 36/22/8
f 37/23/9 38/24/9 23/25/9
f 39/26/10 40/27/10 38/24/10
f 41/28/11 24/29/11 40/27/11
f 42/30/12 43/31/12 24/32/12
f 44/33/13 30/34/14 43/31/15
f 47/35/16 48/36/16 46/37/17
f 49/38/18 50/39/18 48/36/18
f 51/40/19 52/41/19 50/42/19
f 53/43/20 32/44/20 52/41/20
f 56/45/21 57/46/21 55/47/22
f 58/48/23 59/49/23 57/46/23
f 60/50/24 61/51/24 59/52/24
f 62/53/25 34/54/25 61/51/25
f 63/55/26 64/56/26 26/57/26
f 65/58/27 66/59/27 64/56/27
f 67/60/28 68/61/28 66/59/28
f 69/62/29 70/63/29 68/64/29
f 71/65/30 36/66/31 70/63/30
f 37/23/32 76/67/32 81/68/32
f 39/26/33 81/68/33 82/69/33
f 41/28/34 82/69/34 83/70/34
f 42/30/35 83/71/35 84/72/35
f 44/33/36 84/72/37 77/73/38
f 47/35/39 85/74/40 86/75/39
f 49/38/41 86/75/41 87/76/41
f 51/40/42 87/77/42 88/78/42
f 53/43/43 88/78/43 78/79/43
f 56/45/44 89/80/45 90/81/44
f 58/48/46 90/81/46 91/82/46
f 60/50/47 91/83/47 92/84/47
f 62/53/48 92/84/48 79/85/48
f 63/55/49 74/86/49 93/87/49
f 65/58/50 93/87/50 94/88/50
f 67/60/51 94/88/51 95/89/51
f 69/62/52 95/90/52 96/91/52
f 71/65/53 96/91/53 80/92/54
f 26/93/4 66/94/4 68/95/4
f 50/96/4 52/97/4 27/98/4
f 68/95/55 27/98/55 73/98/55 31/95/55
f 95/99/1 94/100/1 74/101/1
f 43/102/4 30/103/4 57/21/4
f 24/17/4 43/102/4 59/104/4
f 23/16/4 40/105/4 24/17/4
f 59/104/4 61/106/4 25/18/4
f 83/107/1 82/108/1 76/109/1
f 23/16/56 25/18/56 33/18/56 75/16/56
f 36/22/57 57/21/4 30/103/58 46/110/59
f 48/111/4 70/112/4 36/22/60
f 50/96/4 68/95/4 70/112/4
f 27/98/4 26/93/4 68/95/4
f 96/113/1 86/114/1 85/115/1
f 95/99/1 87/116/1 86/114/1
f 84/117/1 90/118/1 89/119/1
f 83/107/1 91/120/1 90/118/1
f 23/16/61 75/16/61 76/67/61 37/23/61
f 4/1/1 8/121/1 5/2/1
f 7/122/62 4/123/63 6/124/63
f 9/4/1 13/125/1 10/5/1
f 14/7/1 99/126/1 15/8/1
f 19/13/1 100/127/1 20/14/1
f 22/128/64 100/129/65 19/130/65
f 24/17/4 59/104/4 25/18/4
f 36/66/66 71/65/67 35/19/68
f 38/24/69 37/23/69 39/26/69
f 40/27/70 39/26/70 41/28/70
f 24/32/71 41/131/71 42/30/71
f 43/31/72 42/30/72 44/33/73
f 46/37/74 45/132/75 47/35/76
f 48/36/77 47/35/77 49/38/77
f 50/42/78 49/133/78 51/40/78
f 52/41/79 51/40/79 53/43/79
f 55/47/80 54/134/81 56/45/82
f 57/46/83 56/45/83 58/48/83
f 59/52/84 58/135/84 60/50/84
f 61/51/85 60/50/85 62/53/85
f 64/56/86 63/55/86 65/58/86
f 66/59/87 65/58/87 67/60/87
f 68/64/88 67/136/88 69/62/88
f 70/63/89 69/62/89 71/65/89
f 46/110/90 30/103/91 72/103/92 29/110/93
f 78/79/94 73/98/94 27/98/94 53/43/94
f 35/19/95 71/65/96 80/92/97
f 39/26/33 37/23/33 81/68/33
f 41/28/34 39/26/34 82/69/34
f 42/30/35 41/131/35 83/71/35
f 44/33/98 42/30/99 84/72/99
f 47/35/39 45/132/100 85/74/101
f 49/38/41 47/35/41 86/75/41
f 51/40/42 49/133/42 87/77/42
f 53/43/43 51/40/43 88/78/43
f 56/45/44 54/134/102 89/80/103
f 58/48/46 56/45/46 90/81/46
f 60/50/47 58/135/47 91/83/47
f 62/53/48 60/50/48 92/84/48
f 65/58/50 63/55/50 93/87/50
f 67/60/51 65/58/51 94/88/51
f 69/62/52 67/136/52 95/90/52
f 71/65/53 69/62/53 96/91/53
f 26/93/4 64/137/4 66/94/4
f 52/97/4 32/138/4 27/98/4
f 94/100/1 93/139/1 74/101/1
f 30/103/4 55/140/4 57/21/4
f 43/102/4 57/21/4 59/104/4
f 23/16/4 38/141/4 40/105/4
f 61/106/4 34/142/4 25/18/4
f 82/108/1 81/143/1 76/109/1
f 62/53/104 79/85/104 33/18/104 25/18/104
f 46/110/105 48/111/4 36/22/57
f 48/111/4 50/96/4 70/112/4
f 50/96/4 27/98/4 68/95/4
f 80/144/106 96/113/1 85/115/1
f 96/113/1 95/99/1 86/114/1
f 95/99/1 74/101/1 87/116/1
f 77/145/1 84/117/1 89/119/1
f 84/117/1 83/107/1 90/118/1
f 83/107/1 76/109/1 91/120/1
f 28/20/107 35/19/108 103/19/109 102/20/110
f 35/19/111 71/65/96 80/92/112 103/19/113
f 29/110/114 72/103/115 102/20/116 103/19/117
f 80/92/118 85/115/119 29/110/120 103/19/121
f 54/134/122 28/20/123 102/20/124 89/80/125
f 72/103/126 84/117/127 89/119/128 102/20/129
f 13/125/56 9/4/56 108/4/56 111/125/56
f 19/13/130 115/13/130 119/127/130 100/127/130
f 21/15/131 20/14/131 116/14/131 117/15/131
f 5/2/56 8/121/56 107/121/56 104/2/56
f 14/11/132 18/10/133 114/10/134 112/11/132
f 11/6/135 10/5/135 109/5/135 110/6/135
f 15/8/130 99/126/130 118/126/130 113/8/130
f 7/122/136 6/124/137 105/124/137 106/122/138
f 9/4/139 15/8/139 113/8/139 108/4/139
f 18/10/140 11/6/141 110/6/141 114/10/142
f 111/125/143 116/14/143 20/14/143 13/125/143
f 119/127/144 109/5/144 10/5/144 100/127/144
f 117/15/145 105/124/145 6/124/145 21/15/145
f 19/13/146 5/2/146 104/2/146 115/13/146
f 99/126/147 7/122/148 106/122/149 118/126/147
f 8/121/150 14/11/150 112/11/150 107/121/150
f 7/122/149 99/126/147 135/126/147 131/122/148
f 8/121/130 4/1/130 129/1/130 130/121/130
f 5/2/146 19/13/146 127/13/146 120/2/146
f 20/14/56 100/127/56 137/127/56 136/14/56
f 123/6/151 126/10/152 125/12/151 124/8/151 122/4/151
f 132/5/153 133/125/153 136/14/153 137/127/153
f 121/124/154 120/2/154 127/13/154 128/15/154
f 129/123/155 131/122/156 135/126/155 134/7/155 130/121/155
f 4/123/130 7/122/157 131/122/158 129/123/130
f 13/125/143 20/14/143 136/14/143 133/125/143
f 19/13/135 21/15/135 128/15/135 127/13/135
f 100/127/144 10/5/144 132/5/144 137/127/144
f 10/5/131 13/125/131 133/125/131 132/5/131
f 14/11/150 8/121/150 130/121/150 134/11/150
f 6/3/131 5/2/131 120/2/131 121/3/131
f 99/126/135 14/7/135 134/7/135 135/126/135
f 15/8/139 9/4/139 122/4/139 124/8/139
f 16/9/56 15/8/56 124/8/56 125/9/56
f 21/15/145 6/124/145 121/124/145 128/15/145
f 11/6/141 18/10/142 126/10/140 123/6/141
f 18/10/159 16/12/56 125/12/56 126/10/160
f 9/4/130 11/6/130 123/6/130 122/4/130
f 91/120/161 83/107/161 75/16/161 33/18/161
f 92/84/162 91/120/162 33/18/162 79/85/162
f 73/146/1 87/146/1 31/146/1 95/146/1
f 78/79/163 88/78/163 87/77/163 73/146/163
f 31/146/4 87/146/4 73/146/4 74/146/4
f 95/99/164 74/146/164 73/146/164 87/116/164
l 15 17
l 20 101
