# Blender 4.3.2
# www.blender.org
mtllib boiokshelf.mtl
o Cube.009
v 0.258512 -0.457724 -0.193930
v 0.258512 -0.146162 -0.193930
v 0.258512 -0.457724 -0.272175
v 0.258512 -0.146162 -0.272175
v 0.458512 -0.457724 -0.193930
v 0.458512 -0.146162 -0.193930
v 0.458512 -0.457724 -0.272175
v 0.458512 -0.146162 -0.272175
v -0.137633 -0.500000 0.650000
v -0.137633 0.500000 0.650000
v -0.137633 -0.500000 -0.650000
v -0.137633 0.500000 -0.650000
v 0.462367 -0.457257 0.594434
v 0.462367 0.457257 0.594434
v 0.462367 -0.457257 -0.594434
v 0.462367 0.457257 -0.594434
v 0.462367 0.500000 -0.650000
v 0.462367 -0.500000 -0.650000
v 0.462367 -0.500000 0.650000
v 0.462367 0.500000 0.650000
v 0.056952 0.457257 -0.594434
v 0.056952 -0.457257 -0.594434
v 0.056952 -0.457257 0.594434
v 0.056952 0.457257 0.594434
v 0.258512 -0.457998 0.592399
v 0.258512 -0.057998 0.592399
v 0.258512 -0.457998 0.514155
v 0.258512 -0.057998 0.514155
v 0.458512 -0.457998 0.592399
v 0.458512 -0.057998 0.592399
v 0.458512 -0.457998 0.514155
v 0.458512 -0.057998 0.514155
v 0.258512 -0.457724 0.511472
v 0.258512 -0.146162 0.511472
v 0.258512 -0.457724 0.433228
v 0.258512 -0.146162 0.433228
v 0.458512 -0.457724 0.511472
v 0.458512 -0.146162 0.511472
v 0.458512 -0.457724 0.433228
v 0.458512 -0.146162 0.433228
v 0.258512 -0.458414 0.431992
v 0.258512 0.020087 0.431992
v 0.258512 -0.458414 0.353748
v 0.258512 0.020087 0.353748
v 0.458512 -0.458414 0.431992
v 0.458512 0.020087 0.431992
v 0.458512 -0.458414 0.353748
v 0.458512 0.020087 0.353748
v 0.258512 -0.458373 0.198739
v 0.258512 -0.004954 0.351624
v 0.258512 -0.433374 0.124596
v 0.258512 0.020046 0.277481
v 0.458512 -0.458373 0.198739
v 0.458512 -0.004954 0.351624
v 0.458512 -0.433374 0.124596
v 0.458512 0.020046 0.277481
v 0.258512 -0.458414 -0.033480
v 0.258512 0.020087 -0.033480
v 0.258512 -0.458414 -0.111724
v 0.258512 0.020087 -0.111724
v 0.458512 -0.458414 -0.033480
v 0.458512 0.020087 -0.033480
v 0.458512 -0.458414 -0.111724
v 0.458512 0.020087 -0.111724
v 0.258512 -0.457724 0.046000
v 0.258512 -0.146162 0.046000
v 0.258512 -0.457724 -0.032244
v 0.258512 -0.146162 -0.032244
v 0.458512 -0.457724 0.046000
v 0.458512 -0.146162 0.046000
v 0.458512 -0.457724 -0.032244
v 0.458512 -0.146162 -0.032244
v 0.258512 -0.457998 0.126927
v 0.258512 -0.057998 0.126927
v 0.258512 -0.457998 0.048683
v 0.258512 -0.057998 0.048683
v 0.458512 -0.457998 0.126927
v 0.458512 -0.057998 0.126927
v 0.458512 -0.457998 0.048683
v 0.458512 -0.057998 0.048683
v 0.258512 -0.457998 -0.113003
v 0.258512 -0.057998 -0.113003
v 0.258512 -0.457998 -0.191248
v 0.258512 -0.057998 -0.191248
v 0.458512 -0.457998 -0.113003
v 0.458512 -0.057998 -0.113003
v 0.458512 -0.457998 -0.191248
v 0.458512 -0.057998 -0.191248
v 0.258512 -0.458414 -0.273411
v 0.258512 0.020087 -0.273411
v 0.258512 -0.458414 -0.351655
v 0.258512 0.020087 -0.351655
v 0.458512 -0.458414 -0.273411
v 0.458512 0.020087 -0.273411
v 0.458512 -0.458414 -0.351655
v 0.458512 0.020087 -0.351655
v 0.258512 -0.429586 -0.351456
v 0.258512 0.018646 -0.518942
v 0.258512 -0.456973 -0.424751
v 0.258512 -0.008741 -0.592236
v 0.458512 -0.429586 -0.351456
v 0.458512 0.018646 -0.518942
v 0.458512 -0.456973 -0.424751
v 0.458512 -0.008741 -0.592236
vn -1.0000 -0.0000 -0.0000
vn -0.0000 -0.0000 -1.0000
vn 1.0000 -0.0000 -0.0000
vn -0.0000 -0.0000 1.0000
vn -0.0000 -1.0000 -0.0000
vn -0.0000 1.0000 -0.0000
vn -0.0000 0.3195 -0.9476
vn -0.0000 -0.3195 0.9476
vn -0.0000 -0.9476 -0.3195
vn -0.0000 0.9476 0.3195
vn -0.0000 -0.3500 -0.9367
vn -0.0000 0.3500 0.9367
vn -0.0000 -0.9367 0.3500
vn -0.0000 0.9367 -0.3500
vt 0.926433 0.049397
vt 0.926433 0.004068
vt 0.975194 0.004068
vt 0.975194 0.049397
vt 0.998808 0.574633
vt 0.950048 0.574633
vt 0.950048 0.525873
vt 0.998808 0.525873
vt 0.926433 0.050671
vt 0.975194 0.050671
vt 0.975194 0.099432
vt 0.926433 0.099432
vt 0.361418 0.888207
vt 0.410179 0.888207
vt 0.410179 0.943888
vt 0.361418 0.943888
vt 0.469450 0.900569
vt 0.518211 0.900569
vt 0.518211 0.943888
vt 0.469450 0.943888
vt 0.962953 0.894874
vt 0.914192 0.894874
vt 0.914192 0.846114
vt 0.962953 0.846114
vt 0.157140 0.794096
vt 0.000637 0.794096
vt 0.000637 0.004068
vt 0.157140 0.004068
vt 0.469450 0.899295
vt 0.469450 0.742792
vt 0.615731 0.742792
vt 0.615731 0.899295
vt 0.712689 0.004068
vt 0.712689 0.741518
vt 0.613849 0.741518
vt 0.613849 0.004068
vt 0.763286 0.742792
vt 0.763286 0.899295
vt 0.617005 0.899295
vt 0.617005 0.742792
vt 0.305969 0.004068
vt 0.452249 0.004068
vt 0.452249 0.794096
vt 0.305969 0.794096
vt 0.158414 0.004068
vt 0.304695 0.004068
vt 0.304695 0.794096
vt 0.158414 0.794096
vt 0.814078 0.636671
vt 0.814078 0.486857
vt 0.848705 0.486857
vt 0.848705 0.636671
vt 0.461487 0.794096
vt 0.461487 0.004068
vt 0.468176 0.004068
vt 0.468176 0.794096
vt 0.453524 0.794096
vt 0.453523 0.004068
vt 0.460213 0.004068
vt 0.460213 0.794096
vt 0.848705 0.329080
vt 0.848705 0.478894
vt 0.814078 0.478894
vt 0.814078 0.329080
vt 0.469450 0.004068
vt 0.612575 0.004068
vt 0.612575 0.741518
vt 0.469450 0.741518
vt 0.943229 0.172066
vt 0.943229 0.309163
vt 0.844388 0.309163
vt 0.844388 0.172066
vt 0.814078 0.942693
vt 0.814078 0.778084
vt 0.912919 0.778084
vt 0.912918 0.942693
vt 0.812804 0.004068
vt 0.812804 0.741517
vt 0.713963 0.741517
vt 0.713963 0.004068
vt 0.849979 0.635440
vt 0.849979 0.572838
vt 0.898740 0.572838
vt 0.898740 0.635440
vt 0.049397 0.888207
vt 0.049397 0.943888
vt 0.000637 0.943888
vt 0.000637 0.888207
vt 0.299569 0.888207
vt 0.299569 0.943888
vt 0.250808 0.943888
vt 0.250808 0.888207
vt 0.149466 0.888207
vt 0.149466 0.943888
vt 0.100706 0.943888
vt 0.100706 0.888207
vt 0.950048 0.575907
vt 0.998808 0.575907
vt 0.998808 0.624667
vt 0.950048 0.624667
vt 0.668313 0.943888
vt 0.619553 0.943888
vt 0.619553 0.900569
vt 0.668313 0.900569
vt 0.950048 0.524599
vt 0.950048 0.475839
vt 0.998808 0.475839
vt 0.998808 0.524599
vt 0.469450 0.943888
vt 0.518211 0.943888
vt 0.518211 1.000703
vt 0.469450 1.000703
vt 0.926433 0.100705
vt 0.975194 0.100705
vt 0.975194 0.140673
vt 0.926433 0.140673
vt 0.361418 1.000703
vt 0.361418 0.943888
vt 0.410179 0.943888
vt 0.410179 1.000703
vt 0.862838 0.942693
vt 0.862838 1.000703
vt 0.814078 1.000703
vt 0.814078 0.942693
vt 0.864158 0.942693
vt 0.912919 0.942693
vt 0.912919 1.000703
vt 0.864158 1.000703
vt 0.050671 0.886933
vt 0.050671 0.794096
vt 0.099431 0.794096
vt 0.099432 0.886933
vt 0.049397 0.794096
vt 0.049397 0.886933
vt 0.000637 0.886933
vt 0.000637 0.794096
vt 0.149466 0.794096
vt 0.149466 0.886933
vt 0.100706 0.886933
vt 0.100706 0.794096
vt 0.460213 0.886933
vt 0.411453 0.886933
vt 0.411453 0.794096
vt 0.993263 0.172066
vt 0.993263 0.211947
vt 0.944503 0.211947
vt 0.944503 0.172066
vt 0.519485 0.943888
vt 0.519485 0.900569
vt 0.568245 0.900569
vt 0.568245 0.943888
vt 0.814078 0.643884
vt 0.844815 0.643884
vt 0.844815 0.778084
vt 0.898740 0.452767
vt 0.898740 0.571564
vt 0.849979 0.571564
vt 0.849979 0.452767
vt 0.844388 0.140673
vt 0.844388 0.004068
vt 0.875125 0.004068
vt 0.875125 0.140673
vt 0.925159 0.004068
vt 0.925159 0.140673
vt 0.876399 0.140673
vt 0.876399 0.004068
vt 0.764560 0.778084
vt 0.764560 0.742792
vt 0.810930 0.742792
vt 0.810930 0.778084
vt 0.810930 0.841586
vt 0.764560 0.841586
vt 0.764560 0.778084
vt 0.150740 0.886933
vt 0.150740 0.794096
vt 0.199500 0.794096
vt 0.199500 0.886933
vt 0.249534 0.794096
vt 0.249534 0.886933
vt 0.200774 0.886933
vt 0.200774 0.794096
vt 0.404763 0.794096
vt 0.404763 0.886933
vt 0.356003 0.886933
vt 0.356003 0.794096
vt 0.944884 0.641290
vt 0.944884 0.716176
vt 0.896123 0.716176
vt 0.896123 0.641290
vt 0.944503 0.213221
vt 0.993263 0.213221
vt 0.993263 0.261981
vt 0.944503 0.261981
vt 0.944503 0.263255
vt 0.993263 0.263255
vt 0.993263 0.309163
vt 0.944503 0.309163
vt 0.718348 0.943888
vt 0.669587 0.943888
vt 0.669587 0.900569
vt 0.718348 0.900569
vt 0.768382 0.900569
vt 0.768382 0.943888
vt 0.719622 0.943888
vt 0.719622 0.900569
vt 0.946158 0.641290
vt 0.994918 0.641290
vt 0.994918 0.690050
vt 0.946158 0.690050
vt 0.946158 0.691324
vt 0.994918 0.691324
vt 0.994918 0.740084
vt 0.946158 0.740084
vt 0.946158 0.741358
vt 0.994918 0.741358
vt 0.994918 0.778084
vt 0.946158 0.778084
vt 0.962953 1.000703
vt 0.914192 1.000703
vt 0.914193 0.942693
vt 0.962953 0.942693
vt 0.948774 0.401896
vt 0.948774 0.464498
vt 0.900014 0.464498
vt 0.900014 0.401896
vt 0.460213 0.888207
vt 0.460213 0.943888
vt 0.411453 0.943888
vt 0.411453 0.888207
vt 0.099432 0.888207
vt 0.099432 0.943888
vt 0.050671 0.943888
vt 0.050671 0.888207
vt 0.199500 0.888207
vt 0.199500 0.943888
vt 0.150740 0.943888
vt 0.150740 0.888207
vt 0.950048 0.325736
vt 0.998808 0.325736
vt 0.998808 0.374496
vt 0.950048 0.374496
vt 0.618279 0.900569
vt 0.618279 0.943888
vt 0.569519 0.943888
vt 0.569519 0.900569
vt 0.948774 0.465772
vt 0.948774 0.528373
vt 0.900014 0.528373
vt 0.900014 0.465772
vt 0.349603 0.888207
vt 0.349603 0.943888
vt 0.300843 0.943888
vt 0.300843 0.888207
vt 0.948774 0.529647
vt 0.948774 0.592248
vt 0.900014 0.592248
vt 0.900014 0.529647
vt 0.249534 0.888207
vt 0.249534 0.943888
vt 0.200774 0.943888
vt 0.200774 0.888207
vt 0.914193 0.896148
vt 0.962953 0.896148
vt 0.962953 0.942693
vt 0.914193 0.778084
vt 0.962953 0.778084
vt 0.962953 0.844840
vt 0.914193 0.844840
vt 0.305969 0.886933
vt 0.354729 0.794096
vt 0.354729 0.886933
vt 0.299569 0.794096
vt 0.299569 0.886933
vt 0.250808 0.886933
vt 0.250808 0.794096
vt 0.944883 0.717450
vt 0.944884 0.778084
vt 0.896123 0.778084
vt 0.896123 0.717450
vt 0.948774 0.325736
vt 0.948774 0.400622
vt 0.900014 0.400622
vt 0.900014 0.325736
vt 0.950048 0.375770
vt 0.998808 0.375770
vt 0.998808 0.424530
vt 0.950048 0.424530
vt 0.950048 0.425804
vt 0.998808 0.425804
vt 0.998808 0.474564
vt 0.950048 0.474564
vt 0.843114 0.004068
vt 0.843114 0.140673
vt 0.814078 0.140673
vt 0.814078 0.004068
vt 0.846089 0.778084
vt 0.846089 0.641290
vt 0.894849 0.641290
vt 0.894849 0.778084
vt 0.814078 0.309163
vt 0.814078 0.172066
vt 0.843114 0.172066
vt 0.843114 0.309163
vt 0.849979 0.451493
vt 0.849979 0.325736
vt 0.898740 0.325736
vt 0.898740 0.451493
vt 0.765053 0.891620
vt 0.765053 0.842860
vt 0.810930 0.842860
vt 0.810930 0.891620
vt 0.569519 1.000703
vt 0.615395 0.943888
vt 0.615395 1.000703
s 0
usemtl Material.001
f 1/1/1 2/2/1 4/3/1 3/4/1
f 3/5/2 4/6/2 8/7/2 7/8/2
f 7/9/3 8/10/3 6/11/3 5/12/3
f 5/13/4 6/14/4 2/15/4 1/16/4
f 3/17/5 7/18/5 5/19/5 1/20/5
f 8/21/6 4/22/6 2/23/6 6/24/6
f 9/25/1 10/26/1 12/27/1 11/28/1
f 11/29/2 12/30/2 17/31/2 18/32/2
f 16/33/5 14/34/5 24/35/5 21/36/5
f 19/37/4 20/38/4 10/39/4 9/40/4
f 11/41/5 18/42/5 19/43/5 9/44/5
f 17/45/6 12/46/6 10/47/6 20/48/6
f 16/49/3 15/50/3 18/51/3 17/52/3
f 15/53/3 13/54/3 19/55/3 18/56/3
f 14/57/3 16/58/3 17/59/3 20/60/3
f 13/61/3 14/62/3 20/63/3 19/64/3
f 22/65/3 21/66/3 24/67/3 23/68/3
f 15/69/4 16/70/4 21/71/4 22/72/4
f 14/73/2 13/74/2 23/75/2 24/76/2
f 13/77/6 15/78/6 22/79/6 23/80/6
f 25/81/1 26/82/1 28/83/1 27/84/1
f 27/85/2 28/86/2 32/87/2 31/88/2
f 31/89/3 32/90/3 30/91/3 29/92/3
f 29/93/4 30/94/4 26/95/4 25/96/4
f 27/97/5 31/98/5 29/99/5 25/100/5
f 32/101/6 28/102/6 26/103/6 30/104/6
f 33/105/1 34/106/1 36/107/1 35/108/1
f 35/109/2 36/110/2 40/111/2 39/112/2
f 39/113/3 40/114/3 38/115/3 37/116/3
f 37/117/4 38/118/4 34/119/4 33/120/4
f 35/121/5 39/122/5 37/123/5 33/124/5
f 40/125/6 36/126/6 34/127/6 38/128/6
f 41/129/1 42/130/1 44/131/1 43/132/1
f 43/133/2 44/134/2 48/135/2 47/136/2
f 47/137/3 48/138/3 46/139/3 45/140/3
f 45/60/4 46/141/4 42/142/4 41/143/4
f 43/144/5 47/145/5 45/146/5 41/147/5
f 48/148/6 44/149/6 42/150/6 46/151/6
f 49/74/1 50/152/1 52/153/1 51/154/1
f 51/155/7 52/156/7 56/157/7 55/158/7
f 55/159/3 56/160/3 54/161/3 53/162/3
f 53/163/8 54/164/8 50/165/8 49/166/8
f 51/167/9 55/168/9 53/169/9 49/170/9
f 56/170/10 52/171/10 50/172/10 54/173/10
f 57/174/1 58/175/1 60/176/1 59/177/1
f 59/178/2 60/179/2 64/180/2 63/181/2
f 63/182/3 64/183/3 62/184/3 61/185/3
f 61/186/4 62/187/4 58/188/4 57/189/4
f 59/190/5 63/191/5 61/192/5 57/193/5
f 64/194/6 60/195/6 58/196/6 62/197/6
f 65/198/1 66/199/1 68/200/1 67/201/1
f 67/202/2 68/203/2 72/204/2 71/205/2
f 71/206/3 72/207/3 70/208/3 69/209/3
f 69/210/4 70/211/4 66/212/4 65/213/4
f 67/214/5 71/215/5 69/216/5 65/217/5
f 72/218/6 68/219/6 66/220/6 70/221/6
f 73/222/1 74/223/1 76/224/1 75/225/1
f 75/226/2 76/227/2 80/228/2 79/229/2
f 79/230/3 80/231/3 78/232/3 77/233/3
f 77/234/4 78/235/4 74/236/4 73/237/4
f 75/238/5 79/239/5 77/240/5 73/241/5
f 80/242/6 76/243/6 74/244/6 78/245/6
f 81/246/1 82/247/1 84/248/1 83/249/1
f 83/250/2 84/251/2 88/252/2 87/253/2
f 87/254/3 88/255/3 86/256/3 85/257/3
f 85/258/4 86/259/4 82/260/4 81/261/4
f 83/262/5 87/263/5 85/264/5 81/220/5
f 88/265/6 84/266/6 82/267/6 86/268/6
f 89/269/1 90/44/1 92/270/1 91/271/1
f 91/272/2 92/273/2 96/274/2 95/275/2
f 95/276/3 96/277/3 94/278/3 93/279/3
f 93/280/4 94/281/4 90/282/4 89/283/4
f 91/284/5 95/285/5 93/286/5 89/287/5
f 96/288/6 92/289/6 90/290/6 94/291/6
f 97/292/1 98/293/1 100/294/1 99/295/1
f 99/296/11 100/297/11 104/298/11 103/299/11
f 103/300/3 104/301/3 102/302/3 101/303/3
f 101/304/12 102/305/12 98/306/12 97/307/12
f 99/308/13 103/309/13 101/310/13 97/311/13
f 104/312/14 100/244/14 98/313/14 102/314/14
