# Blender 4.3.2
# www.blender.org
mtllib Glass.mtl
o Cube.004
v 0.000000 1.623209 -0.770882
v -0.250000 1.623209 -0.770882
v 0.250000 1.623209 -0.770882
v 0.000000 2.457026 -0.770882
v -0.250000 2.457026 -0.770882
v 0.250000 2.457026 -0.770882
v 0.000000 2.834419 -0.764289
v -0.250000 2.834419 -0.764289
v 0.250000 2.834419 -0.764289
v 0.000000 2.915759 -0.477813
v -0.000000 2.939801 -0.001171
v -0.250000 2.915759 -0.477813
v 0.250000 2.915759 -0.477813
v 0.250000 2.939801 -0.001171
v 0.464401 2.915759 -0.477813
v 0.485999 2.824589 -0.752139
v 0.464401 2.939801 -0.001171
v 0.793292 2.528253 -0.250000
v 0.793292 2.528253 0.000000
v 0.793292 2.528253 -0.471903
v 0.793292 1.694437 -0.250000
v 0.793292 1.694437 0.000000
v 0.793292 1.694437 -0.471903
v 0.464401 1.623209 -0.770882
v 0.478536 2.471045 -0.782569
v 0.464401 2.457026 -0.729118
v 0.464401 1.623209 -0.729118
v 0.250000 2.457026 -0.729118
v 0.464401 2.803962 -0.735711
v 0.706708 2.528253 -0.471903
v 0.706708 1.694437 -0.471903
v 0.706708 2.528253 -0.250000
v 0.706708 2.528253 0.000000
v 0.706708 1.694437 -0.250000
v 0.464401 2.877172 -0.471456
v 0.464401 2.903351 -0.001207
v 0.250000 2.877172 -0.471456
v 0.250000 2.803962 -0.735711
v 0.250000 2.903351 -0.001207
v 0.000000 2.877172 -0.471456
v 0.000000 2.803962 -0.735711
v 0.000000 2.903351 -0.001207
v -0.250000 2.877172 -0.471456
v -0.250000 2.803962 -0.735711
v -0.250000 2.903351 -0.001207
v -0.464401 2.877172 -0.471456
v -0.464401 2.803962 -0.735711
v -0.464401 2.903351 -0.001207
v -0.750000 2.528253 -0.250000
v -0.750000 2.528253 -0.471903
v -0.750000 2.528253 0.000000
v -0.773983 1.694437 -0.250000
v -0.464401 2.915759 -0.477813
v -0.726017 1.694437 -0.250000
v -0.726017 1.694437 0.000000
v -0.726017 1.694437 -0.471903
v -0.464401 1.623209 -0.729118
v -0.464401 2.457026 -0.729118
v -0.250000 1.623209 -0.729118
v 0.000000 1.623209 -0.729118
v -0.250000 2.457026 -0.729118
v 0.000000 2.457026 -0.729118
v 0.250000 1.623209 -0.729118
v -0.726017 1.694437 0.250000
v -0.726017 1.694437 0.471903
v -0.750000 2.528253 0.250000
v -0.750000 2.528253 0.471903
v -0.464401 2.878818 0.470129
v -0.773983 1.694437 0.250000
v -0.464401 2.912169 0.475574
v -0.464401 2.830787 0.760386
v -0.464401 2.939801 -0.001171
v -0.250000 2.912169 0.475574
v -0.250000 2.830787 0.760386
v -0.250000 2.939801 -0.001171
v -0.000000 2.912169 0.475574
v 0.000000 2.830787 0.760386
v 0.250000 2.912169 0.475574
v 0.250000 2.830787 0.760386
v 0.464401 2.912169 0.475574
v 0.468627 2.832474 0.764826
v 0.793292 2.528253 0.250000
v 0.793292 2.528253 0.471903
v 0.793292 1.694437 0.250000
v 0.793292 1.694437 0.471903
v 0.464401 1.623209 0.765568
v 0.250000 1.623209 0.765568
v 0.482250 2.476552 0.782180
v 0.464401 2.457026 0.734432
v 0.250000 2.457026 0.750000
v 0.000000 2.457026 0.750000
v 0.250000 1.623209 0.734432
v 0.250000 2.807594 0.739614
v 0.464401 2.807594 0.739614
v 0.000000 2.807594 0.739614
v 0.250000 2.878818 0.470129
v -0.000000 2.878818 0.470129
v 0.464401 2.878818 0.470129
v 0.706708 2.528253 0.250000
v 0.706708 1.694437 0.250000
v 0.706708 2.528253 0.471903
v 0.706708 1.694437 0.471903
v 0.464401 1.623209 0.734432
v 0.706708 1.694437 0.000000
v -0.250000 2.878818 0.470129
v -0.250000 2.807594 0.739614
v -0.464401 2.807594 0.739614
v -0.250000 2.457026 0.750000
v -0.250000 1.623209 0.734432
v -0.250000 1.623209 0.765568
v -0.464401 2.457026 0.750000
v -0.464401 1.623209 0.765568
v -0.464401 1.623209 0.734432
v -0.773983 1.694437 0.471903
v 0.000000 1.623209 0.765568
v 0.000000 1.623209 0.734432
v -0.773983 1.694437 0.000000
v -0.464401 2.834419 -0.764289
v -0.464401 2.457026 -0.770882
v -0.464401 1.623209 -0.770882
v -0.773983 1.694437 -0.471903
vn -0.0000 -0.0000 -1.0000
vn -0.0000 0.0175 -0.9998
vn -0.0000 0.9620 -0.2731
vn -0.0000 0.9987 -0.0504
vn 0.0288 0.9557 -0.2929
vn 0.7603 0.6440 -0.0852
vn 0.7748 0.6318 -0.0209
vn 1.0000 -0.0000 -0.0000
vn 0.6888 -0.0108 -0.7249
vn -0.0262 -0.0067 -0.9996
vn 0.0005 0.0506 -0.9987
vn -0.1678 0.9841 -0.0580
vn 0.6974 0.0468 -0.7152
vn -0.7279 -0.0000 0.6857
vn -0.0000 -0.0000 1.0000
vn -0.0000 0.0190 0.9998
vn -1.0000 -0.0000 -0.0000
vn -0.8183 -0.5684 0.0856
vn -0.8337 -0.5519 0.0201
vn -0.0000 -0.9637 0.2670
vn -0.0000 -0.9985 0.0556
vn 0.7703 -0.6306 0.0950
vn 0.7882 -0.6150 0.0224
vn 0.9996 0.0288 -0.0000
vn -0.9996 0.0288 -0.0000
vn -0.8021 0.5897 -0.0944
vn -0.8160 0.5778 -0.0191
vn 0.6863 0.0099 0.7273
vn 0.7887 -0.6145 -0.0209
vn -0.8150 0.5790 0.0220
vn 0.7718 -0.6293 -0.0912
vn -0.7991 0.5936 0.0953
vn -0.0000 0.9615 0.2747
vn -0.0000 0.9983 0.0579
vn -0.0065 0.9628 0.2702
vn 0.7565 0.6471 0.0946
vn 0.7737 0.6330 0.0241
vn 0.6878 -0.0144 0.7258
vn -0.0719 0.0001 0.9974
vn 0.9548 0.0133 -0.2970
vn -0.1939 0.9807 0.0231
vn 0.6998 0.0615 0.7117
vn -0.0813 0.0080 0.9967
vn -0.0363 -0.0074 -0.9993
vn -0.0363 0.0093 -0.9993
vn -0.0000 -0.0296 -0.9996
vn -0.0000 0.0187 0.9998
vn -0.0000 0.0187 -0.9998
vn -0.0000 -0.0278 0.9996
vn -0.0000 -0.9668 -0.2555
vn -0.0000 -0.9986 -0.0520
vn -0.8196 -0.5669 -0.0822
vn -0.8341 -0.5513 -0.0188
vn -0.7348 -0.0000 -0.6782
vn -0.7000 -0.0198 0.7138
vn -0.6906 0.0167 0.7230
vn 0.7049 0.0168 -0.7091
vn -0.7216 0.0121 -0.6922
vn -0.7075 0.0102 -0.7066
vt 0.750000 0.519696
vt 0.781250 0.519696
vt 0.718750 0.519696
vt 0.781250 0.571837
vt 0.750000 0.571837
vt 0.718750 0.571837
vt 0.750000 0.623977
vt 0.718750 0.623977
vt 0.781250 0.623977
vt 0.691950 0.519696
vt 0.691950 0.571837
vt 0.691950 0.623977
vt 0.000000 0.000000
vt 0.637299 0.625000
vt 0.637299 0.593750
vt 0.637299 0.566012
vt 0.718750 0.542804
vt 0.691950 0.542804
vt 0.675201 0.566012
vt 0.675201 0.593750
vt 0.675201 0.625000
vt 0.691950 0.584413
vt 0.718750 0.584413
vt 0.691950 0.626023
vt 0.718750 0.626023
vt 0.750000 0.542804
vt 0.750000 0.584413
vt 0.750000 0.626023
vt 0.781250 0.542804
vt 0.781250 0.584413
vt 0.781250 0.626023
vt 0.808050 0.542804
vt 0.808050 0.584413
vt 0.808050 0.626023
vt 0.829359 0.593750
vt 0.829359 0.566012
vt 0.858141 0.566012
vt 0.858141 0.593750
vt 0.829359 0.625000
vt 0.858141 0.625000
vt 0.829359 0.656250
vt 0.829359 0.683988
vt 0.858141 0.656250
vt 0.858141 0.683988
vt 0.781250 0.676118
vt 0.808050 0.676118
vt 0.808050 0.728258
vt 0.781250 0.728258
vt 0.808050 0.623977
vt 0.750000 0.676118
vt 0.750000 0.728258
vt 0.718750 0.676118
vt 0.718750 0.728258
vt 0.691950 0.676118
vt 0.691950 0.728258
vt 0.637299 0.683988
vt 0.637299 0.656250
vt 0.691950 0.709242
vt 0.718750 0.709242
vt 0.750000 0.709242
vt 0.718750 0.667632
vt 0.691950 0.667632
vt 0.750000 0.667632
vt 0.675201 0.656250
vt 0.675201 0.683988
vt 0.781250 0.667632
vt 0.781250 0.709242
vt 0.808050 0.667632
vt 0.808050 0.709242
vt 0.808050 0.571837
vt 0.808050 0.519696
s 0
usemtl Material.002
f 1/1/1 2/2/1 5/2/1 4/1/1
f 3/3/1 1/1/1 4/1/1 6/3/1
f 4/1/2 5/2/2 8/2/2 7/1/2
f 6/3/2 4/1/2 7/1/2 9/3/2
f 7/1/3 8/2/3 12/4/3 10/5/3
f 9/3/3 7/1/3 10/5/3 13/6/3
f 13/6/4 10/5/4 11/7/4 14/8/4
f 10/5/4 12/4/4 75/9/4 11/7/4
f 16/10/5 9/3/5 13/6/5 15/11/5
f 15/11/4 13/6/4 14/8/4 17/12/4
f 18/13/6 20/13/6 16/13/6 15/13/6
f 18/13/7 15/13/7 17/13/7 19/13/7
f 22/14/8 21/15/8 18/15/8 19/14/8
f 21/15/8 23/16/8 20/16/8 18/15/8
f 25/13/9 20/13/9 23/13/9 24/13/9
f 24/10/10 3/3/10 6/3/10 25/10/10
f 25/10/11 6/3/11 9/3/11 16/10/11
f 26/13/12 30/13/12 20/13/12 25/13/12
f 16/13/13 20/13/13 25/13/13
f 27/13/14 31/13/14 30/13/14 26/13/14
f 63/17/15 27/18/15 26/18/15 28/17/15
f 28/17/16 26/18/16 29/18/16 38/17/16
f 31/19/17 34/20/17 32/20/17 30/19/17
f 32/13/18 35/13/18 29/13/18 30/13/18
f 32/13/19 33/13/19 36/13/19 35/13/19
f 34/20/17 104/21/17 33/21/17 32/20/17
f 38/17/20 29/18/20 35/22/20 37/23/20
f 37/23/21 35/22/21 36/24/21 39/25/21
f 41/26/20 38/17/20 37/23/20 40/27/20
f 40/27/21 37/23/21 39/25/21 42/28/21
f 44/29/20 41/26/20 40/27/20 43/30/20
f 43/30/21 40/27/21 42/28/21 45/31/21
f 47/32/20 44/29/20 43/30/20 46/33/20
f 46/33/21 43/30/21 45/31/21 48/34/21
f 49/13/22 50/13/22 47/13/22 46/13/22
f 49/13/23 46/13/23 48/13/23 51/13/23
f 54/35/24 56/36/24 50/36/24 49/35/24
f 121/37/25 52/38/25 49/38/25 50/37/25
f 49/13/26 53/13/26 118/13/26 50/13/26
f 55/39/24 54/35/24 49/35/24 51/39/24
f 52/38/25 117/40/25 51/40/25 49/38/25
f 49/13/27 51/13/27 72/13/27 53/13/27
f 58/13/28 50/13/28 56/13/28 57/13/28
f 57/32/15 59/29/15 61/29/15 58/32/15
f 59/29/15 60/26/15 62/26/15 61/29/15
f 61/29/16 62/26/16 41/26/16 44/29/16
f 58/32/16 61/29/16 44/29/16 47/32/16
f 60/26/15 63/17/15 28/17/15 62/26/15
f 62/26/16 28/17/16 38/17/16 41/26/16
f 64/41/24 55/39/24 51/39/24 66/41/24
f 65/42/24 64/41/24 66/41/24 67/42/24
f 51/13/29 48/13/29 68/13/29 66/13/29
f 117/40/25 69/43/25 66/43/25 51/40/25
f 51/13/30 66/13/30 70/13/30 72/13/30
f 66/13/31 68/13/31 107/13/31 67/13/31
f 69/43/25 114/44/25 67/44/25 66/43/25
f 66/13/32 67/13/32 71/13/32 70/13/32
f 73/45/33 70/46/33 71/47/33 74/48/33
f 75/9/34 72/49/34 70/46/34 73/45/34
f 76/50/33 73/45/33 74/48/33 77/51/33
f 11/7/34 75/9/34 73/45/34 76/50/34
f 78/52/33 76/50/33 77/51/33 79/53/33
f 14/8/34 11/7/34 76/50/34 78/52/34
f 80/54/35 78/52/35 79/53/35 81/55/35
f 17/12/34 14/8/34 78/52/34 80/54/34
f 82/13/36 80/13/36 81/13/36 83/13/36
f 19/13/37 17/13/37 80/13/37 82/13/37
f 85/56/8 84/57/8 82/57/8 83/56/8
f 84/57/8 22/14/8 19/14/8 82/57/8
f 83/13/38 88/13/38 86/13/38 85/13/38
f 87/53/39 86/55/39 88/55/39 90/53/39
f 88/55/40 89/58/40 94/58/40 81/55/40
f 101/13/41 89/13/41 88/13/41 83/13/41
f 83/13/42 81/13/42 88/13/42
f 90/53/43 88/55/43 81/55/43 79/53/43
f 89/58/44 90/59/44 93/59/44 94/58/44
f 103/58/45 92/59/45 90/59/45 89/58/45
f 90/59/46 91/60/46 95/60/46 93/59/46
f 115/51/47 87/53/47 90/53/47 91/51/47
f 92/59/48 116/60/48 91/60/48 90/59/48
f 91/51/49 90/53/49 79/53/49 77/51/49
f 96/61/50 98/62/50 94/58/50 93/59/50
f 97/63/50 96/61/50 93/59/50 95/60/50
f 39/25/51 36/24/51 98/62/51 96/61/51
f 42/28/51 39/25/51 96/61/51 97/63/51
f 99/13/52 101/13/52 94/13/52 98/13/52
f 33/13/53 99/13/53 98/13/53 36/13/53
f 104/21/17 100/64/17 99/64/17 33/21/17
f 100/64/17 102/65/17 101/65/17 99/64/17
f 102/13/54 103/13/54 89/13/54 101/13/54
f 105/66/50 97/63/50 95/60/50 106/67/50
f 45/31/51 42/28/51 97/63/51 105/66/51
f 68/68/50 105/66/50 106/67/50 107/69/50
f 48/34/51 45/31/51 105/66/51 68/68/51
f 91/60/46 108/67/46 106/67/46 95/60/46
f 108/67/46 111/69/46 107/69/46 106/67/46
f 108/48/49 91/51/49 77/51/49 74/48/49
f 116/60/48 109/67/48 108/67/48 91/60/48
f 110/48/47 115/51/47 91/51/47 108/48/47
f 109/67/48 113/69/48 111/69/48 108/67/48
f 111/47/49 108/48/49 74/48/49 71/47/49
f 112/47/47 110/48/47 108/48/47 111/47/47
f 67/13/55 111/13/55 71/13/55
f 67/13/56 114/13/56 112/13/56 111/13/56
f 111/13/57 113/13/57 65/13/57 67/13/57
f 12/4/4 53/70/4 72/49/4 75/9/4
f 8/2/3 118/71/3 53/70/3 12/4/3
f 5/2/2 119/71/2 118/71/2 8/2/2
f 50/13/58 118/13/58 119/13/58
f 119/13/59 120/13/59 121/13/59 50/13/59
f 2/2/1 120/71/1 119/71/1 5/2/1
